<?xml version="1.0" encoding="UTF-8"?>
<svg version="1.1" xmlns="http://www.w3.org/2000/svg" width="3674" height="1300">
<path d="M0 0 C1.42179565 0.76932861 1.42179565 0.76932861 2.87231445 1.55419922 C4.39344849 2.38395264 4.39344849 2.38395264 5.9453125 3.23046875 C7.01031982 3.80941895 8.07532715 4.38836914 9.17260742 4.98486328 C17.23235488 9.38087286 25.23657737 13.86991783 33.21923828 18.40405273 C40.56380316 22.57458767 47.93490797 26.69521251 55.3203125 30.79296875 C56.44638916 31.4178418 57.57246582 32.04271484 58.73266602 32.68652344 C62.17817819 34.59767341 65.62415624 36.50798045 69.0703125 38.41796875 C82.35851208 45.78278445 95.64382804 53.15242658 108.8828125 60.60546875 C109.82543945 61.13414551 110.76806641 61.66282227 111.73925781 62.20751953 C112.61807617 62.70364746 113.49689453 63.19977539 114.40234375 63.7109375 C115.54280151 64.35325317 115.54280151 64.35325317 116.70629883 65.00854492 C117.48642334 65.47365479 118.26654785 65.93876465 119.0703125 66.41796875 C120.60737602 67.22168663 120.60737602 67.22168663 122.17549133 68.04164124 C125.0703125 70.41796875 125.0703125 70.41796875 125.7918396 73.78424072 C125.8091643 75.13899416 125.79342046 76.49441837 125.75146484 77.84863281 C125.752341 78.59048828 125.75321716 79.33234375 125.75411987 80.09667969 C125.74994685 82.54339735 125.70331569 84.9873566 125.65625 87.43359375 C125.64505666 89.13180036 125.63651712 90.83002636 125.63052368 92.52825928 C125.60763571 96.99383217 125.54871402 101.45823045 125.4822998 105.92333984 C125.42087582 110.48128367 125.3935085 115.03941767 125.36328125 119.59765625 C125.29896974 128.53827596 125.19659153 137.47802461 125.0703125 146.41796875 C128.55545148 144.54946319 132.0396114 142.6791449 135.52296448 140.80731201 C137.2744667 139.86656598 139.02668835 138.92715979 140.77893066 137.98779297 C148.24373696 133.97511172 155.64616487 129.86662454 163.0078125 125.66796875 C170.22824178 121.57177187 177.45504831 117.49101902 184.7578125 113.54296875 C185.54212646 113.10758789 186.32644043 112.67220703 187.13452148 112.22363281 C188.22228882 111.64307129 188.22228882 111.64307129 189.33203125 111.05078125 C189.96069092 110.70934082 190.58935059 110.36790039 191.23706055 110.01611328 C194.38945837 108.98756425 196.4703154 110.12988834 199.36254883 111.51855469 C200.20068115 111.97520508 201.03881348 112.43185547 201.90234375 112.90234375 C203.32897339 113.67650635 203.32897339 113.67650635 204.78442383 114.46630859 C205.80689209 115.02785645 206.82936035 115.5894043 207.8828125 116.16796875 C208.95233154 116.75143066 210.02185059 117.33489258 211.1237793 117.93603516 C219.19608663 122.35399917 227.21743935 126.85923955 235.21899414 131.40380859 C242.56354015 135.57460128 249.93478688 139.69520351 257.3203125 143.79296875 C258.44783936 144.41856689 259.57536621 145.04416504 260.73706055 145.6887207 C263.03192777 146.96150832 265.32693164 148.23404959 267.62207031 149.50634766 C282.40924756 157.7039969 297.1895681 165.91385957 311.9453125 174.16796875 C312.99154785 174.75263916 314.0377832 175.33730957 315.11572266 175.93969727 C316.08815918 176.48424561 317.0605957 177.02879395 318.0625 177.58984375 C318.91183105 178.06518555 319.76116211 178.54052734 320.63623047 179.03027344 C321.43947754 179.48821289 322.24272461 179.94615234 323.0703125 180.41796875 C323.98780273 180.78486816 324.90529297 181.15176758 325.85058594 181.52978516 C328.0703125 183.41796875 328.0703125 183.41796875 328.50454712 185.21142578 C328.67025973 187.64219364 328.65726774 190.02133638 328.59375 192.45703125 C328.58723923 193.81606064 328.58723923 193.81606064 328.58059692 195.20254517 C328.55993932 198.15016889 328.50328366 201.09586294 328.4453125 204.04296875 C328.42333204 206.05173894 328.40315101 208.06052963 328.38476562 210.06933594 C328.23078993 224.19380991 327.8569973 238.31383417 327.0703125 252.41796875 C332.03024794 249.79598851 336.98847032 247.17079218 341.9453125 244.54296875 C342.67860779 244.15425598 343.41190308 243.76554321 344.16741943 243.36505127 C355.65751216 237.27454995 355.65751216 237.27454995 367.04516602 230.99536133 C368.46450433 230.2016471 369.892073 229.42245329 371.32788086 228.65893555 C374.60150095 226.9080573 377.48151367 225.14926315 380.30859375 222.734375 C383.8657017 220.08934601 386.59168818 218.18117464 391.0703125 218.41796875 C398.83369321 221.03330165 405.76941148 225.6703928 412.65617371 230.03215027 C418.89543226 233.98327264 425.33621399 237.50771452 431.8203125 241.04296875 C434.07690074 242.29308528 436.33212677 243.54566412 438.5859375 244.80078125 C439.67455078 245.40696289 440.76316406 246.01314453 441.88476562 246.63769531 C447.72917197 249.90389788 453.55238495 253.20738977 459.37695312 256.50878906 C470.05523567 262.55441905 480.78868917 268.50020182 491.52099609 274.44921875 C495.25395944 276.51911448 498.98453857 278.59328738 502.71484375 280.66796875 C503.96907343 281.3654009 505.22330517 282.06282934 506.47753906 282.76025391 C508.29351815 283.77006055 510.10944205 284.77996563 511.9251709 285.79022217 C513.589219 286.71600855 515.25358609 287.64122148 516.91796875 288.56640625 C517.86679932 289.09411621 518.81562988 289.62182617 519.79321289 290.16552734 C521.20506462 290.9420685 522.62910704 291.69736602 524.0703125 292.41796875 C524.41649932 327.34821892 523.80355521 362.24645898 523.0703125 397.16796875 C523.03443905 398.87693518 523.03443905 398.87693518 522.99784088 400.62042618 C522.69755235 414.8864701 522.38809362 429.15230417 522.0703125 443.41796875 C521.33048126 443.81555893 520.59065002 444.21314911 519.82839966 444.62278748 C517.03972746 446.12181487 514.25135189 447.62139225 511.46316528 449.12132263 C510.26459102 449.76596697 509.06590441 450.4104025 507.86709595 451.05461121 C500.86673564 454.81662378 493.8807131 458.59986828 486.9453125 462.48046875 C480.12432345 466.29335345 473.26192201 470.02346614 466.3828125 473.73046875 C458.5158417 477.97207303 450.70760971 482.3004329 442.9453125 486.73046875 C433.43384181 492.15413284 423.80219203 497.32373502 414.12719727 502.44689941 C404.89565432 507.33832613 395.76223517 512.36951863 386.69140625 517.5546875 C378.62900926 522.14561762 370.45716408 526.52140157 362.26647949 530.8772583 C354.34455829 535.09305369 346.48633678 539.40187615 338.6953125 543.85546875 C329.90582213 548.87803467 321.01556239 553.68114879 312.0703125 558.41796875 C302.0616344 563.71858106 292.13573508 569.13209675 282.30029297 574.75024414 C274.76783322 579.04846154 267.16465135 583.2062397 259.51171875 587.28613281 C255.45837207 589.46906112 251.55256074 591.71473519 247.7578125 594.32421875 C242.63841732 597.80920295 237.22170925 600.66067747 231.74298096 603.53634644 C228.62200731 605.17545895 225.50994828 606.83129221 222.3984375 608.48828125 C221.77188263 608.82180099 221.14532776 609.15532074 220.49978638 609.49894714 C214.84226384 612.52041578 209.26153583 615.66913775 203.6953125 618.85546875 C194.90617167 623.87861288 186.0155708 628.68121902 177.0703125 633.41796875 C168.04309295 638.1985216 159.07480593 643.05354295 150.1953125 648.10546875 C149.28273682 648.61561523 148.37016113 649.12576172 147.42993164 649.65136719 C142.46961236 652.43206563 137.61523058 655.3198297 132.80859375 658.359375 C117.77527152 667.62305786 117.77527152 667.62305786 111.2578125 667.12890625 C108.21954822 665.64629171 105.67591565 663.95822445 103.02832031 661.86425781 C99.08582257 658.95211858 94.67261558 656.77131466 90.3828125 654.41796875 C88.38218707 653.28333988 86.38353771 652.14522076 84.38671875 651.00390625 C77.88911307 647.30578468 71.35850802 643.66873404 64.8203125 640.04296875 C63.6950415 639.4185791 62.56977051 638.79418945 61.41040039 638.15087891 C57.96410581 636.2391839 54.51729842 634.32841688 51.0703125 632.41796875 C46.48637928 629.87738203 41.90293487 627.33591925 37.3203125 624.79296875 C35.63796509 623.85952637 35.63796509 623.85952637 33.92163086 622.90722656 C26.72068161 618.90617523 19.54561967 614.86182235 12.3828125 610.79296875 C3.70912946 605.868589 -5.03500184 601.08844601 -13.81591797 596.35839844 C-23.10477481 591.34574551 -32.31052364 586.19083404 -41.51171875 581.01953125 C-48.1382902 577.29596141 -54.78275943 573.60504456 -61.4296875 569.91796875 C-71.13801826 564.53085552 -80.83149056 559.11797032 -90.515625 553.6875 C-99.27647029 548.77745447 -108.05487043 543.89939984 -116.8371582 539.02783203 C-123.40039965 535.38520705 -129.95293336 531.72432579 -136.49658203 528.04663086 C-145.64286564 522.9067658 -154.81792772 517.83106726 -164.0546875 512.85546875 C-172.78935867 508.14945342 -181.45260867 503.33236629 -190.07910156 498.43115234 C-197.46386656 494.23759815 -204.87754944 490.0984754 -212.3046875 485.98046875 C-221.02388384 481.14548639 -229.73378627 476.29472883 -238.4296875 471.41796875 C-255.66763168 461.7568579 -272.90681218 452.10137293 -290.3046875 442.73046875 C-298.49075891 438.31961145 -306.59408711 433.78859716 -314.65039062 429.14550781 C-322.15246526 424.83335796 -329.7218974 420.64821348 -337.3046875 416.48046875 C-346.96465063 411.17034562 -356.59001961 405.80513943 -366.17382812 400.35839844 C-372.12422483 396.98401205 -378.09773264 393.65516794 -384.09706116 390.36875916 C-387.25186568 388.6400357 -390.39895823 386.90006759 -393.5300293 385.12866211 C-399.49648208 381.76517927 -405.38090072 378.5934314 -411.82983398 376.21972656 C-415.41594546 374.37749381 -418.44876711 372.67093269 -420.9296875 369.41796875 C-421.79852156 365.67773738 -421.57250932 362.07359541 -421.37280273 358.25732422 C-421.32851843 356.60438008 -421.32851843 356.60438008 -421.2833395 354.91804314 C-421.22000639 352.58652893 -421.14331263 350.25534432 -421.05414963 347.92467499 C-420.89635803 343.47891465 -420.84525406 339.03551666 -420.79829502 334.58743477 C-420.7352681 328.8664527 -420.62743985 323.14621376 -420.52734375 317.42578125 C-420.48482818 314.93195718 -420.44238484 312.43813187 -420.40000916 309.94430542 C-420.31156704 304.7729013 -420.22140433 299.60153059 -420.13012695 294.43017578 C-420.01382336 287.82597623 -419.90326751 281.22169373 -419.79412174 274.61737251 C-419.70853265 269.49049955 -419.61924891 264.36369575 -419.52892876 259.23690414 C-419.48657986 256.80102618 -419.4455167 254.36512549 -419.4058094 251.92920303 C-419.35000018 248.5310095 -419.28902557 245.13294471 -419.22680664 241.73486328 C-419.21170044 240.74770325 -419.19659424 239.76054321 -419.18103027 238.74346924 C-419.12714682 235.96624299 -419.0403322 233.1934906 -418.9296875 230.41796875 C-418.89301405 229.41633572 -418.8563406 228.41470268 -418.81855583 227.38271713 C-418.76055872 226.40135914 -418.70256161 225.42000114 -418.64280701 224.40890503 C-418.5956829 223.52688353 -418.54855879 222.64486202 -418.50000668 221.73611259 C-417.77673385 218.79626679 -416.67796838 217.94337328 -414.22265625 216.24609375 C-412.54222401 215.34560825 -410.83790502 214.4888572 -409.1171875 213.66796875 C-407.72765869 212.94081665 -407.72765869 212.94081665 -406.31005859 212.19897461 C-404.28176612 211.14014792 -402.24446404 210.09844822 -400.19970703 209.07177734 C-395.02845349 206.45642185 -389.93979788 203.68928452 -384.83908081 200.93960571 C-383.04046922 199.97282622 -381.23870456 199.01219723 -379.43579102 198.0534668 C-372.07821025 194.13846776 -364.79026763 190.11738053 -357.5546875 185.98046875 C-348.12819921 180.59378495 -338.57907053 175.46839079 -328.98547363 170.38848877 C-319.75430172 165.49724128 -310.62125217 160.46621423 -301.55078125 155.28125 C-293.48838426 150.69031988 -285.31653908 146.31453593 -277.12585449 141.9586792 C-269.20393329 137.74288381 -261.34571178 133.43406135 -253.5546875 128.98046875 C-244.12750108 123.59350508 -234.57784097 118.46750615 -224.98345947 113.38748169 C-216.72919813 109.01416446 -208.53896961 104.55680203 -200.4296875 99.91796875 C-191.04496201 94.54953092 -181.53660558 89.4456096 -171.98291016 84.38720703 C-163.7288339 80.01398012 -155.5387907 75.55669968 -147.4296875 70.91796875 C-138.04496201 65.54953092 -128.53660558 60.4456096 -118.98291016 55.38720703 C-110.7288339 51.01398012 -102.5387907 46.55669968 -94.4296875 41.91796875 C-85.68266415 36.91432201 -76.83412604 32.13297953 -67.9296875 27.41796875 C-58.82102733 22.59380347 -49.76555722 17.70130158 -40.8046875 12.60546875 C-39.8883252 12.08654053 -38.97196289 11.5676123 -38.02783203 11.03295898 C-33.41534278 8.4165685 -28.82133474 5.77196618 -24.2421875 3.09765625 C-22.42994454 2.05814552 -20.61745495 1.01906458 -18.8046875 -0.01953125 C-17.98081543 -0.51106689 -17.15694336 -1.00260254 -16.30810547 -1.5090332 C-15.54127441 -1.9443335 -14.77444336 -2.37963379 -13.984375 -2.828125 C-13.31905762 -3.21669678 -12.65374023 -3.60526855 -11.96826172 -4.00561523 C-7.74440899 -5.19992856 -3.65091522 -1.97872683 0 0 Z " fill="#BEF3FE" transform="translate(561.9296875,320.58203125)"/>
<path d="M0 0 C9.67157827 5.05733398 19.19937671 10.34422591 28.69067383 15.73168945 C36.18918634 19.98485688 43.71181751 24.19256672 51.25 28.375 C52.94020264 29.31279297 52.94020264 29.31279297 54.66455078 30.26953125 C56.96015014 31.54272629 59.25588635 32.81567461 61.55175781 34.08837891 C67.24413127 37.24409146 72.93485724 40.40276729 78.625 43.5625 C79.7399585 44.1814917 80.85491699 44.8004834 82.00366211 45.43823242 C89.61774285 49.66827728 97.21733463 53.92360949 104.8125 58.1875 C112.47378805 62.48666585 120.15614775 66.74256335 127.875 70.9375 C145.44564495 80.48655472 162.90797793 90.22936735 180.30541992 100.09008789 C191.01771223 106.15512896 201.78536178 112.12008379 212.55175781 118.08837891 C218.24413129 121.24409148 223.93483799 124.40280194 229.625 127.5625 C230.74140869 128.1822168 231.85781738 128.80193359 233.00805664 129.44042969 C239.53572561 133.06654387 246.05276394 136.71094322 252.5625 140.36914062 C261.71054959 145.50920099 270.88679614 150.58612361 280.125 155.5625 C288.86111725 160.26929443 297.52550337 165.08767961 306.15380859 169.98901367 C313.49689432 174.15830849 320.86625458 178.27816431 328.25 182.375 C329.37607666 182.99987305 330.50215332 183.62474609 331.66235352 184.26855469 C335.10786569 186.17970466 338.55384374 188.0900117 342 190 C346.58393322 192.54058672 351.16736236 195.08207703 355.75 197.625 C356.87301514 198.24802002 357.99603027 198.87104004 359.15307617 199.51293945 C366.31217319 203.49033122 373.4432734 207.51428813 380.5625 211.5625 C388.64826849 216.15700646 396.80051567 220.61186718 405 225 C414.15155426 229.8976538 423.22809374 234.90597429 432.25048828 240.03735352 C439.60029357 244.21644448 446.9804729 248.33809089 454.375 252.4375 C464.11745663 257.83982679 473.8452182 263.26739928 483.5612793 268.71704102 C489.05948574 271.79897968 494.56269452 274.87162829 500.07421875 277.9296875 C500.66512802 278.2577388 501.25603729 278.5857901 501.86485291 278.92378235 C504.78819964 280.54616994 507.71342809 282.16493519 510.64135742 283.77905273 C515.34290413 286.37688464 520.02660091 288.97689022 524.6015625 291.79296875 C525.24714111 292.18564941 525.89271973 292.57833008 526.55786133 292.98291016 C528.14957086 293.96225335 529.72613013 294.96611455 531.30078125 295.97265625 C533.98125723 297.26312411 533.98125723 297.26312411 536.86328125 296.453125 C540.64643995 294.70052844 544.25874859 292.75956932 547.875 290.6875 C549.48232104 289.77991714 551.0904362 288.87373965 552.69921875 287.96875 C553.55563965 287.48664063 554.41206055 287.00453125 555.29443359 286.5078125 C560.06423572 283.84960117 564.87883226 281.27451039 569.6875 278.6875 C577.55478319 274.44648432 585.36267263 270.11745298 593.125 265.6875 C602.10467528 260.56812864 611.18265309 255.65664796 620.3125 250.8125 C632.82731055 244.17228324 645.26440162 237.41571107 657.5703125 230.39453125 C658.3142627 229.97163818 659.05821289 229.54874512 659.82470703 229.11303711 C661.2368628 228.3093287 662.64683497 227.50176684 664.05419922 226.68969727 C668.77724149 224 668.77724149 224 671 224 C671 223.34 671 222.68 671 222 C671.60658447 221.67427002 672.21316895 221.34854004 672.83813477 221.01293945 C683.99704361 215.01331229 695.12205182 208.96928321 706.125 202.6875 C716.38714223 196.83675084 726.789409 191.27273833 737.22363281 185.73779297 C744.6754621 181.78334734 752.09158964 177.77563648 759.44970703 173.64892578 C765.49434332 170.26353466 771.58837013 166.97351039 777.6875 163.6875 C785.55451256 159.4459705 793.36266054 155.11745989 801.125 150.6875 C811.38724685 144.83692623 821.78940268 139.27274168 832.22363281 133.73779297 C839.6754621 129.78334734 847.09158964 125.77563648 854.44970703 121.64892578 C860.49434332 118.26353466 866.58837013 114.97351039 872.6875 111.6875 C880.55451308 107.44597022 888.36265681 103.11745502 896.125 98.6875 C905.39556024 93.40242955 914.76792943 88.32529442 924.1875 83.3125 C924.84937317 82.96021332 925.51124634 82.60792664 926.19317627 82.2449646 C937.78477636 76.08054625 937.78477636 76.08054625 942 74 C942.35278285 108.57543329 941.72524025 143.12098149 941 177.6875 C940.96412655 179.39775045 940.96412655 179.39775045 940.92752838 181.14255142 C940.62706192 195.42855973 940.31759902 209.7143627 940 224 C939.26016876 224.39759018 938.52033752 224.79518036 937.75808716 225.20481873 C934.96941496 226.70384612 932.18103939 228.2034235 929.39285278 229.70335388 C928.19427852 230.34799822 926.99559191 230.99243375 925.79678345 231.63664246 C918.79642314 235.39865503 911.8104006 239.18189953 904.875 243.0625 C898.05401095 246.8753847 891.19160951 250.60549739 884.3125 254.3125 C876.4455292 258.55410428 868.63729721 262.88246415 860.875 267.3125 C851.36352931 272.73616409 841.73187953 277.90576627 832.05688477 283.02893066 C822.82534182 287.92035738 813.69192267 292.95154988 804.62109375 298.13671875 C796.55869676 302.72764887 788.38685158 307.10343282 780.19616699 311.45928955 C772.27424579 315.67508494 764.41602428 319.9839074 756.625 324.4375 C747.83550963 329.46006592 738.94524989 334.26318004 730 339 C719.9913219 344.30061231 710.06542258 349.714128 700.22998047 355.33227539 C692.69752072 359.63049279 685.09433885 363.78827095 677.44140625 367.86816406 C673.38805957 370.05109237 669.48224824 372.29676644 665.6875 374.90625 C660.56810482 378.3912342 655.15139675 381.24270872 649.67266846 384.11837769 C646.55169481 385.7574902 643.43963578 387.41332346 640.328125 389.0703125 C639.70157013 389.40383224 639.07501526 389.73735199 638.42947388 390.08097839 C632.77195134 393.10244703 627.19122333 396.251169 621.625 399.4375 C612.83585917 404.46064413 603.9452583 409.26325027 595 414 C585.97278045 418.78055285 577.00449343 423.6355742 568.125 428.6875 C567.21242432 429.19764648 566.29984863 429.70779297 565.35961914 430.23339844 C560.39929986 433.01409688 555.54491808 435.90186095 550.73828125 438.94140625 C535.70495902 448.20508911 535.70495902 448.20508911 529.1875 447.7109375 C526.14923572 446.22832296 523.60560315 444.5402557 520.95800781 442.44628906 C517.01551007 439.53414983 512.60230308 437.35334591 508.3125 435 C506.31187457 433.86537113 504.31322521 432.72725201 502.31640625 431.5859375 C495.81880057 427.88781593 489.28819552 424.25076529 482.75 420.625 C481.624729 420.00061035 480.49945801 419.3762207 479.34008789 418.73291016 C475.89379331 416.82121515 472.44698592 414.91044813 469 413 C464.41606678 410.45941328 459.83262237 407.9179505 455.25 405.375 C454.12843506 404.75270508 453.00687012 404.13041016 451.85131836 403.48925781 C444.65036911 399.48820648 437.47530717 395.4438536 430.3125 391.375 C421.63881696 386.45062025 412.89468566 381.67047726 404.11376953 376.94042969 C394.82491269 371.92777676 385.61916386 366.77286529 376.41796875 361.6015625 C369.7913973 357.87799266 363.14692807 354.18707581 356.5 350.5 C346.79166924 345.11288677 337.09819694 339.70000157 327.4140625 334.26953125 C318.65321721 329.35948572 309.87481707 324.48143109 301.0925293 319.60986328 C294.52928785 315.9672383 287.97675414 312.30635704 281.43310547 308.62866211 C272.28682186 303.48879705 263.11175978 298.41309851 253.875 293.4375 C245.14032883 288.73148467 236.47707883 283.91439754 227.85058594 279.01318359 C220.46582094 274.8196294 213.05213806 270.68050665 205.625 266.5625 C196.90580366 261.72751764 188.19590123 256.87676008 179.5 252 C162.26205582 242.33888915 145.02287532 232.68340418 127.625 223.3125 C119.43892859 218.9016427 111.33560039 214.37062841 103.27929688 209.72753906 C95.77722224 205.41538921 88.2077901 201.23024473 80.625 197.0625 C70.96503687 191.75237687 61.33966789 186.38717068 51.75585938 180.94042969 C45.80546267 177.5660433 39.83195486 174.23719919 33.83262634 170.95079041 C30.67782182 169.22206695 27.53072927 167.48209884 24.3996582 165.71069336 C18.43320542 162.34721052 12.54878678 159.17546265 6.09985352 156.80175781 C2.51374204 154.95952506 -0.51907961 153.25296394 -3 150 C-3.86883406 146.25976863 -3.64282182 142.65562666 -3.44311523 138.83935547 C-3.41359237 137.73739271 -3.3840695 136.63542995 -3.353652 135.50007439 C-3.29031889 133.16856018 -3.21362513 130.83737557 -3.12446213 128.50670624 C-2.96667053 124.0609459 -2.91556656 119.61754791 -2.86860752 115.16946602 C-2.8055806 109.44848395 -2.69775235 103.72824501 -2.59765625 98.0078125 C-2.55514068 95.51398843 -2.51269734 93.02016312 -2.47032166 90.52633667 C-2.38187954 85.35493255 -2.29171683 80.18356184 -2.20043945 75.01220703 C-2.08413586 68.40800748 -1.97358001 61.80372498 -1.86443424 55.19940376 C-1.77884515 50.0725308 -1.68956141 44.945727 -1.59924126 39.81893539 C-1.55689236 37.38305743 -1.5158292 34.94715674 -1.4761219 32.51123428 C-1.42031268 29.11304075 -1.35933807 25.71497596 -1.29711914 22.31689453 C-1.28201294 21.3297345 -1.26690674 20.34257446 -1.25134277 19.32550049 C-1.12564416 12.84682356 -0.6684548 6.44498237 0 0 Z " fill="#14B4D6" transform="translate(144,540)"/>
<path d="M0 0 C0.99 0 1.98 0 3 0 C4.40615707 1.97622074 5.57585706 3.88823605 6.75 6 C7.54819458 7.38170585 8.34917823 8.76180275 9.15234375 10.140625 C9.82305908 11.29594727 9.82305908 11.29594727 10.50732422 12.47460938 C13.35259155 17.28838845 16.34012987 22.01405366 19.3125 26.75 C19.9612207 27.78576172 20.60994141 28.82152344 21.27832031 29.88867188 C25.65132759 36.86543784 30.04468394 43.82922467 34.44726562 50.78735352 C40.3616376 60.14097599 46.21657488 69.53174581 52.07666016 78.91943359 C55.21589225 83.94746489 58.35810814 88.97363049 61.5 94 C62.11343262 94.98162109 62.72686523 95.96324219 63.35888672 96.97460938 C66.56987567 102.11286468 69.78206335 107.25036528 72.99609375 112.38671875 C83.95221671 129.8995376 83.95221671 129.8995376 88.1875 136.8125 C93.37008167 145.2635781 98.69632891 153.62464027 104 162 C115.40377926 180.01334757 126.79649749 198.03473367 137.85864258 216.26049805 C142.15357899 223.30833347 146.61057952 230.2507942 151.05932617 237.20214844 C155.21122277 243.70905143 159.22174317 250.26731678 163 257 C161.07414242 258.92585758 157.50160033 258.2883866 154.86914062 258.37304688 C154.12267273 258.40084732 153.37620483 258.42864777 152.6071167 258.45729065 C150.97951378 258.51725442 149.35182701 258.57497316 147.72407532 258.63075256 C145.14217087 258.71923248 142.56052984 258.8134052 139.97888184 258.90905762 C135.41875738 259.07704834 130.85846505 259.23987002 126.2980957 259.40106201 C119.0269279 259.65816355 111.75593372 259.91968471 104.4851532 260.18751526 C101.95231363 260.27957574 99.41935171 260.36741348 96.88635254 260.45495605 C89.55393182 260.71733963 82.27933632 261.02017021 75 262 C75.47308594 262.44988281 75.94617188 262.89976562 76.43359375 263.36328125 C81.58182605 268.37101598 86.19106407 273.65761141 90.64404297 279.2890625 C91.60458959 280.50107379 92.57028498 281.70901272 93.53955078 282.9140625 C103.10162692 294.80800763 111.77085479 307.15042476 120 320 C120.41556152 320.64437012 120.83112305 321.28874023 121.25927734 321.95263672 C141.05743253 352.89743623 155.71330028 387.43409674 165.5625 422.75 C165.83601288 423.72226532 165.83601288 423.72226532 166.11505127 424.71417236 C166.62863451 426.55175787 167.1290729 428.39300191 167.62890625 430.234375 C168.0631189 431.83104004 168.0631189 431.83104004 168.50610352 433.45996094 C169 436 169 436 168 438 C164.38242194 436.00675363 160.76518588 434.01288814 157.14822388 432.01852417 C155.84040971 431.2974748 154.53252796 430.57654799 153.22457886 429.85574341 C145.39441679 425.5402502 137.57315844 421.20973432 129.76998901 416.84561157 C123.85909501 413.54107504 117.93354604 410.26365649 112 407 C110.81374023 406.34306152 110.81374023 406.34306152 109.60351562 405.67285156 C107.68264484 404.61681523 105.75194311 403.58390549 103.8125 402.5625 C102.84957031 402.04816406 101.88664063 401.53382813 100.89453125 401.00390625 C95.67220855 399.19265533 91.62602398 399.38839325 86.5625 401.29296875 C85.36607361 401.90739983 84.17889921 402.54007563 83 403.1875 C82.34572021 403.52974609 81.69144043 403.87199219 81.01733398 404.22460938 C78.6669693 405.46302244 76.33340991 406.72992733 74 408 C71.8867778 409.14203636 69.77349266 410.28395626 67.66015625 411.42578125 C64.37282681 413.20382601 61.08809946 414.98597219 57.81054688 416.78198242 C56.81216797 417.32830322 55.81378906 417.87462402 54.78515625 418.4375 C53.43756226 419.17806641 53.43756226 419.17806641 52.06274414 419.93359375 C50 421 50 421 49 421 C48.99453156 420.17434036 48.99453156 420.17434036 48.98895264 419.33200073 C48.94705323 413.58874708 48.87765613 407.84628705 48.79248047 402.10351562 C48.76430256 399.96199491 48.74307225 397.82037082 48.72900391 395.67871094 C48.70753075 392.59516593 48.66085683 389.51285982 48.609375 386.4296875 C48.60814636 385.47633514 48.60691772 384.52298279 48.60565186 383.54074097 C48.48147805 377.87015845 47.87799998 374.42997808 44 370 C40.65291887 366.95853983 37.07949256 364.79492247 33.1171875 362.63671875 C31.96379883 362.00491699 30.81041016 361.37311523 29.62207031 360.72216797 C29.0122229 360.3910199 28.40237549 360.05987183 27.77404785 359.71868896 C25.83755415 358.66716678 23.90423634 357.61000837 21.97167969 356.55126953 C19.29349501 355.08421017 16.61433069 353.61896406 13.93457031 352.15478516 C8.02460854 348.92207982 2.13690596 345.64947829 -3.75 342.375 C-4.85939941 341.75842529 -5.96879883 341.14185059 -7.11181641 340.5065918 C-15.61213282 335.77943206 -24.09924026 331.02889115 -32.58251953 326.27124023 C-41.3783491 321.34083317 -50.19243824 316.44367922 -59.01513672 311.56152344 C-64.53314895 308.50300017 -70.03303072 305.41851219 -75.5 302.26953125 C-76.53302246 301.67664307 -77.56604492 301.08375488 -78.63037109 300.47290039 C-80.55920882 299.36318183 -82.4843344 298.24697315 -84.40478516 297.12280273 C-94.24869963 291.2320059 -94.24869963 291.2320059 -105.34765625 290.4375 C-111.12054861 292.0779667 -116.23951177 295.06443342 -121.4375 298 C-122.47922363 298.57580811 -123.52094727 299.15161621 -124.59423828 299.74487305 C-127.73631377 301.48467414 -130.86935322 303.23973066 -134 305 C-136.66852486 306.49693247 -139.33735211 307.99328775 -142.00805664 309.48632812 C-143.55576038 310.35348921 -145.10065567 311.22568695 -146.64233398 312.10351562 C-151.7809253 315 -151.7809253 315 -154 315 C-154.00364563 314.36408432 -154.00729126 313.72816864 -154.01104736 313.07298279 C-154.05294856 306.4375287 -154.12234801 299.80276138 -154.20751953 293.16772461 C-154.23569632 290.69351072 -154.25692715 288.21920737 -154.27099609 285.74487305 C-154.29247022 282.18231513 -154.33914675 278.62082917 -154.390625 275.05859375 C-154.39246796 273.40663246 -154.39246796 273.40663246 -154.39434814 271.72129822 C-154.5162837 265.28676877 -154.99849915 261.14083453 -159 256 C-161.72237513 253.74919884 -161.72237513 253.74919884 -164.8984375 252.03515625 C-165.46702484 251.70435562 -166.03561218 251.37355499 -166.62142944 251.0327301 C-168.40419629 250.00276005 -170.19999308 248.99947849 -172 248 C-173.1024707 247.37593262 -174.20494141 246.75186523 -175.34082031 246.10888672 C-178.16155866 244.52776465 -180.99122013 242.96507769 -183.83001709 241.41665649 C-185.69325039 240.40026967 -187.55416104 239.3797359 -189.41455078 238.3581543 C-191.35790336 237.29103443 -193.30135691 236.22410549 -195.24545288 235.15834045 C-201.80062225 231.56461292 -208.34006852 227.94291247 -214.875 224.3125 C-215.99165039 223.6922998 -217.10830078 223.07209961 -218.25878906 222.43310547 C-225.31568092 218.5079031 -232.35134783 214.54681737 -239.375 210.5625 C-249.38562667 204.88396254 -259.45243697 199.31100069 -269.53613281 193.76367188 C-270.74675087 193.0976673 -271.95736294 192.43165183 -273.16796875 191.765625 C-273.75482452 191.44279541 -274.3416803 191.11996582 -274.94631958 190.78735352 C-278.55066213 188.80295655 -282.14751025 186.80571579 -285.73828125 184.796875 C-286.57705811 184.32789795 -287.41583496 183.8589209 -288.2800293 183.37573242 C-289.79182086 182.52909767 -291.30248924 181.68045265 -292.81176758 180.8293457 C-298.31838271 177.74730022 -302.65504534 176.32324424 -309 177 C-312.45879152 178.20808363 -312.45879152 178.20808363 -315.875 180.125 C-316.54007568 180.47409424 -317.20515137 180.82318848 -317.89038086 181.18286133 C-320.26937691 182.43874439 -322.63383904 183.72010773 -325 185 C-327.00335482 186.06484018 -329.00729749 187.12857487 -331.01171875 188.19140625 C-342.44962499 194.28169748 -353.77957854 200.54059666 -365.03344727 206.96362305 C-373.58358149 211.818416 -382.25534787 216.42858544 -390.94366455 221.02920532 C-400.17502198 225.92054242 -409.30825633 230.9516522 -418.37890625 236.13671875 C-426.43763497 240.72556007 -434.6055029 245.09990618 -442.79275513 249.45324707 C-451.9148142 254.30682919 -460.93575376 259.31630461 -469.91015625 264.4375 C-476.47674569 268.17270888 -483.11863897 271.72598338 -489.82324219 275.20581055 C-495.89924884 278.37730381 -501.86149014 281.7255988 -507.8125 285.125 C-517.42409969 290.61173061 -527.15261396 295.84595342 -536.93267822 301.02307129 C-546.38131231 306.02822897 -555.72650716 311.18428072 -565.01171875 316.48828125 C-571.53560265 320.20430034 -578.13553155 323.73598123 -584.79956055 327.19287109 C-592.10747562 331.00602993 -599.2580736 335.08126436 -606.41796875 339.16381836 C-613.47208754 343.17221902 -620.59553033 347.0206763 -627.79882812 350.75390625 C-628.51490234 351.12515625 -629.23097656 351.49640625 -629.96875 351.87890625 C-630.64550781 352.22840332 -631.32226562 352.57790039 -632.01953125 352.93798828 C-634.02236933 354.01199539 -635.95976276 355.16743636 -637.90625 356.33984375 C-638.9271875 356.88769531 -639.948125 357.43554688 -641 358 C-641.66 357.67 -642.32 357.34 -643 357 C-633.79997528 328.89753542 -621.5115688 301.21645085 -606 276 C-605.54882812 275.23042969 -605.09765625 274.46085937 -604.6328125 273.66796875 C-596.33372992 259.53139588 -587.07188398 246.10521026 -577.36376953 232.90869141 C-576.0947535 231.13261419 -574.91434729 229.32368926 -573.74609375 227.48046875 C-573.16988281 226.66191406 -572.59367187 225.84335937 -572 225 C-571.34 225 -570.68 225 -570 225 C-569.34 223.35 -568.68 221.7 -568 220 C-567.34 220 -566.68 220 -566 220 C-565.34 218.35 -564.68 216.7 -564 215 C-563.34 215 -562.68 215 -562 215 C-561.77441406 214.45601562 -561.54882812 213.91203125 -561.31640625 213.3515625 C-559.58776213 210.26359881 -557.35449856 207.95545026 -554.9375 205.375 C-551.58466353 201.95790247 -551.58466353 201.95790247 -549 198 C-548.34 198 -547.68 198 -547 198 C-546.78085937 197.45633789 -546.56171875 196.91267578 -546.3359375 196.35253906 C-544.55895085 193.22332793 -542.15895025 190.87314601 -539.625 188.359375 C-539.09986816 187.83232971 -538.57473633 187.30528442 -538.03369141 186.76226807 C-536.92661117 185.65383072 -535.8170167 184.54789954 -534.70507812 183.44433594 C-532.99893025 181.74893699 -531.30375953 180.0430839 -529.609375 178.3359375 C-528.53189108 177.25977442 -527.45378733 176.18423149 -526.375 175.109375 C-525.86662598 174.59695251 -525.35825195 174.08453003 -524.83447266 173.55657959 C-521.22994091 170 -521.22994091 170 -519 170 C-518.67 169.01 -518.34 168.02 -518 167 C-515.953125 165.125 -515.953125 165.125 -513.25 163 C-512.2496875 162.20335937 -511.249375 161.40671875 -510.21875 160.5859375 C-509.68894531 160.1640918 -509.15914062 159.74224609 -508.61328125 159.30761719 C-506.48445013 157.58212998 -504.41551283 155.79224471 -502.34350586 153.99926758 C-461.60667604 118.86710655 -411.18517198 91.44909434 -360.10253906 74.69189453 C-358.62536876 74.20579367 -357.15097382 73.7112168 -355.67871094 73.21044922 C-274.89162489 45.7326097 -187.81458656 42.37136636 -46.44140625 78.28515625 C-43.89641705 79.28217689 -43.89641705 79.28217689 -41 78 C-39.46340769 75.68460501 -39.46340769 75.68460501 -38.06640625 72.76953125 C-37.50638916 71.66818848 -36.94637207 70.5668457 -36.36938477 69.43212891 C-36.07524689 68.84280579 -35.78110901 68.25348267 -35.47805786 67.64630127 C-33.92167377 64.52896785 -32.3335065 61.42783628 -30.75 58.32421875 C-30.43096207 57.69668701 -30.11192413 57.06915527 -29.78321838 56.42260742 C-26.98376564 50.92898386 -24.04797476 45.51908816 -21.0625 40.125 C-13.76639521 26.89447989 -6.8955886 13.44214124 0 0 Z " fill="#15B4D6" transform="translate(858,123)"/>
<path d="M0 0 C5.93338641 1.61819629 10.90611427 4.63163793 16.1875 7.6875 C18.25468126 8.86941192 20.32241238 10.05036253 22.390625 11.23046875 C24.01194336 12.15738525 24.01194336 12.15738525 25.66601562 13.10302734 C31.23599465 16.27223773 36.83503021 19.38868091 42.4375 22.5 C44.13604126 23.4437146 44.13604126 23.4437146 45.86889648 24.40649414 C53.30341545 28.52794761 60.7672616 32.59188107 68.25 36.625 C76.94398245 41.31185597 85.56642123 46.1109903 94.15429688 50.98925781 C101.49718845 55.15852676 108.86641363 59.27825256 116.25 63.375 C117.37607666 63.99987305 118.50215332 64.62474609 119.66235352 65.26855469 C123.10786569 67.17970466 126.55384374 69.0900117 130 71 C134.58393322 73.54058672 139.16736236 76.08207703 143.75 78.625 C145.43452271 79.55953003 145.43452271 79.55953003 147.15307617 80.51293945 C154.31217319 84.49033122 161.4432734 88.51428813 168.5625 92.5625 C176.64826849 97.15700646 184.80051567 101.61186718 193 106 C202.15155426 110.8976538 211.22809374 115.90597429 220.25048828 121.03735352 C227.60029357 125.21644448 234.9804729 129.33809089 242.375 133.4375 C251.09422388 138.2724301 259.80420673 143.12304896 268.5 148 C280.65742973 154.81686179 292.84023306 161.58736581 305.02783203 168.35009766 C307.58053842 169.76714955 310.13242396 171.18565308 312.68359375 172.60546875 C321.13339035 177.30746573 329.59598523 181.98594044 338.06420898 186.65466309 C357.52489844 197.38429253 376.97380507 208.13304815 396.30712891 219.09106445 C405.84822136 224.49297023 415.43333848 229.81461685 425.0234375 235.12890625 C429.23498875 237.46301179 433.44256213 239.80387864 437.64465332 242.15496826 C440.12374267 243.54195797 442.60402401 244.9268088 445.08435059 246.31158447 C446.83504028 247.2901638 448.58404466 248.27175622 450.33300781 249.25341797 C451.92773926 250.14311279 451.92773926 250.14311279 453.5546875 251.05078125 C454.48780762 251.57325439 455.42092773 252.09572754 456.38232422 252.6340332 C462.72332147 255.94291957 467.01235016 256.74573211 474 255 C478.68032986 253.00984108 483.07901575 250.56400721 487.5 248.0625 C488.75273178 247.37036876 490.006323 246.67979091 491.26074219 245.99072266 C494.85129494 244.01279597 498.42586865 242.00743904 502 240 C503.66065947 239.07798676 505.32200149 238.1572005 506.984375 237.23828125 C509.8180595 235.67025205 512.64663593 234.09351188 515.47265625 232.51171875 C520.84761927 229.51490854 526.27004891 226.60654505 531.6875 223.6875 C539.55448671 219.44593579 547.36278852 215.11768021 555.125 210.6875 C564.07974633 205.57931835 573.13993164 200.6978269 582.25 195.875 C590.83832857 191.32508059 599.39871249 186.74334426 607.8125 181.875 C608.88516113 181.2560083 608.88516113 181.2560083 609.97949219 180.62451172 C613.43614565 178.59999496 616.77253769 176.47902768 620.06640625 174.19921875 C625.79855751 170.34053225 631.91935005 167.21638085 638.03741455 164.02658081 C641.62511606 162.15489845 645.20365942 160.26592143 648.78125 158.375 C649.84891098 157.81080605 649.84891098 157.81080605 650.93814087 157.23521423 C656.89583166 154.07651467 662.77484328 150.79121474 668.625 147.4375 C677.43422098 142.39296463 686.34565389 137.56873787 695.3125 132.8125 C704.06511648 128.16985741 712.7960143 123.50087256 721.4387207 118.65551758 C727.59323217 115.20959659 733.79345248 111.85114836 740 108.5 C747.7723728 104.3018463 755.5206552 100.0660194 763.23388672 95.76025391 C772.78342548 90.43559661 782.39474194 85.22324791 792 80 C792.92409427 82.50452784 793.1174204 83.67411456 792.19897461 86.22314453 C791.55714233 87.41593018 791.55714233 87.41593018 790.90234375 88.6328125 C790.19368164 89.96699219 790.19368164 89.96699219 789.47070312 91.328125 C788.71176758 92.71257812 788.71176758 92.71257812 787.9375 94.125 C787.21916992 95.47464844 787.21916992 95.47464844 786.48632812 96.8515625 C774.56442149 119.06748491 760.52219823 140.93382092 744 160 C742.32635025 162.01505376 740.65945735 164.03574238 739 166.0625 C738.278125 166.94035156 737.55625 167.81820312 736.8125 168.72265625 C734.89486924 171.06656223 734.89486924 171.06656223 733 174 C732.34 174 731.68 174 731 174 C730.7421875 174.57234375 730.484375 175.1446875 730.21875 175.734375 C728.88634058 178.21128995 727.34943882 180.1341166 725.5 182.25 C724.8915625 182.95640625 724.283125 183.6628125 723.65625 184.390625 C722 186 722 186 720 186 C719.79375 186.53625 719.5875 187.0725 719.375 187.625 C717.46749574 190.91978009 714.95180616 193.59363628 712 196 C711.34 196 710.68 196 710 196 C709.67 196.99 709.34 197.98 709 199 C707.57421875 200.4375 707.57421875 200.4375 705.6875 202 C702.60957163 204.60440093 699.60803628 207.2661379 696.65649414 210.01342773 C682.30062861 223.3623459 666.33333446 235.17564581 650 246 C649.33226562 246.44279297 648.66453125 246.88558594 647.9765625 247.34179688 C590.00420819 285.48425743 522.98894171 308.44623092 454 315 C453.11038574 315.0942627 452.22077148 315.18852539 451.30419922 315.28564453 C439.40620738 316.39877883 427.43881732 316.24390291 415.5 316.25 C414.31437469 316.25067474 413.12874939 316.25134949 411.90719604 316.25204468 C394.05247377 316.23590567 376.67453291 315.68869045 359 313 C357.80084961 312.82839355 356.60169922 312.65678711 355.36621094 312.47998047 C329.02201871 308.67228852 303.25508848 302.39729585 278 294 C276.99807617 293.66726074 275.99615234 293.33452148 274.96386719 292.99169922 C260.31409058 288.03602237 246.28524368 282.02746974 232.3125 275.4375 C231.56553864 275.08641174 230.81857727 274.73532349 230.04898071 274.37359619 C215.95458866 267.72052865 202.40926486 260.25114118 189.1953125 251.98828125 C186.90959184 250.56599297 184.61784063 249.16892722 182.3046875 247.79296875 C181.39722778 247.24878296 181.39722778 247.24878296 180.47143555 246.69360352 C178.77891733 245.67976032 177.08291349 244.67174269 175.38671875 243.6640625 C174.59910156 243.11492187 173.81148437 242.56578125 173 242 C173 241.34 173 240.68 173 240 C172.30390625 239.75765625 171.6078125 239.5153125 170.890625 239.265625 C167.53904501 237.79817646 164.69603421 235.88659562 161.75 233.75 C161.15155273 233.31888916 160.55310547 232.88777832 159.93652344 232.44360352 C149.04554059 224.48190988 138.67181321 215.74862941 128.78515625 206.57421875 C127.07528714 204.9309124 127.07528714 204.9309124 125 204 C125 203.34 125 202.68 125 202 C124.45182617 201.77634766 123.90365234 201.55269531 123.33886719 201.32226562 C120.29754281 199.60286971 118.01766379 197.30376001 115.578125 194.84375 C114.82085114 194.08934631 114.82085114 194.08934631 114.04827881 193.31970215 C112.98692003 192.25970014 111.92806581 191.19718512 110.87158203 190.13232422 C109.24860876 188.49859954 107.61518932 186.87586706 105.98046875 185.25390625 C104.94987854 184.22199524 103.91990848 183.18946441 102.890625 182.15625 C102.40007629 181.66974976 101.90952759 181.18324951 101.40411377 180.68200684 C98 177.22994349 98 177.22994349 98 175 C97.01 174.67 96.02 174.34 95 174 C90 168.53488372 90 168.53488372 90 166 C89.34 166 88.68 166 88 166 C86.27212332 163.99480978 84.65950964 161.98120513 83.0625 159.875 C82.06671154 158.58179611 81.07060907 157.28883397 80.07421875 155.99609375 C79.5642334 155.33077637 79.05424805 154.66545898 78.52880859 153.97998047 C77.08428844 152.10916309 75.62035087 150.25633754 74.14453125 148.41015625 C68.08718032 140.82942517 62.3503694 133.10221552 57 125 C56.49098145 124.23220215 55.98196289 123.4644043 55.45751953 122.67333984 C0 38.5560219 0 38.5560219 0 0 Z " fill="#0F5564" transform="translate(209,748)"/>
<path d="M0 0 C0.35278285 34.57543329 -0.27475975 69.12098149 -1 103.6875 C-1.03587345 105.39775045 -1.03587345 105.39775045 -1.07247162 107.14255142 C-1.37293808 121.42855973 -1.68240098 135.7143627 -2 150 C-2.73983124 150.39759018 -3.47966248 150.79518036 -4.24191284 151.20481873 C-7.03058504 152.70384612 -9.81896061 154.2034235 -12.60714722 155.70335388 C-13.80572148 156.34799822 -15.00440809 156.99243375 -16.20321655 157.63664246 C-23.20357686 161.39865503 -30.1895994 165.18189953 -37.125 169.0625 C-43.94598905 172.8753847 -50.80839049 176.60549739 -57.6875 180.3125 C-65.5544708 184.55410428 -73.36270279 188.88246415 -81.125 193.3125 C-90.63647069 198.73616409 -100.26812047 203.90576627 -109.94311523 209.02893066 C-119.17465818 213.92035738 -128.30807733 218.95154988 -137.37890625 224.13671875 C-145.44130324 228.72764887 -153.61314842 233.10343282 -161.80383301 237.45928955 C-169.72575421 241.67508494 -177.58397572 245.9839074 -185.375 250.4375 C-194.16449037 255.46006592 -203.05475011 260.26318004 -212 265 C-222.0086781 270.30061231 -231.93457742 275.714128 -241.77001953 281.33227539 C-249.30247928 285.63049279 -256.90566115 289.78827095 -264.55859375 293.86816406 C-268.61194043 296.05109237 -272.51775176 298.29676644 -276.3125 300.90625 C-281.43189518 304.3912342 -286.84860325 307.24270872 -292.32733154 310.11837769 C-295.44830519 311.7574902 -298.56036422 313.41332346 -301.671875 315.0703125 C-302.61170731 315.57059212 -302.61170731 315.57059212 -303.57052612 316.08097839 C-309.22804866 319.10244703 -314.80877667 322.251169 -320.375 325.4375 C-329.16414663 330.46064744 -338.05480012 335.26313179 -347 340 C-356.10857942 344.82419907 -365.16500554 349.71519391 -374.125 354.8125 C-375.04063721 355.33287842 -375.95627441 355.85325684 -376.8996582 356.3894043 C-378.69879555 357.41284827 -380.49770902 358.43668592 -382.29638672 359.4609375 C-386.9189273 362.09237111 -391.54618845 364.71429633 -396.1875 367.3125 C-397.43587646 368.02466675 -397.43587646 368.02466675 -398.70947266 368.7512207 C-399.47952637 369.18007568 -400.24958008 369.60893066 -401.04296875 370.05078125 C-402.04880005 370.61792847 -402.04880005 370.61792847 -403.07495117 371.1965332 C-405 372 -405 372 -409 372 C-409.10242307 336.64313862 -409.14256686 301.29068539 -408.5625 265.9375 C-408.5330278 264.03649033 -408.5330278 264.03649033 -408.50296021 262.09707642 C-408.39537388 255.32455856 -408.25616082 248.55437539 -408.06613159 241.78366089 C-408.00588076 239.2475374 -407.98571351 236.71468922 -407.97680664 234.17797852 C-407.84562585 225.28707826 -407.84562585 225.28707826 -405.80932617 222.18774414 C-404.04782706 220.75527719 -402.4034853 219.94416692 -400.3125 219.0625 C-399.57918457 218.69229736 -398.84586914 218.32209473 -398.09033203 217.94067383 C-396.39504831 217.08556226 -394.68789299 216.25375024 -392.97216797 215.44042969 C-389.60274782 213.80747594 -386.30064108 212.06248963 -383.00390625 210.2890625 C-382.38878677 209.95831223 -381.7736673 209.62756195 -381.13990784 209.28678894 C-379.8670989 208.60206727 -378.59442111 207.91710175 -377.3218689 207.23190308 C-375.35971368 206.17929961 -373.39325466 205.13523558 -371.42504883 204.09399414 C-363.71348144 200.01326014 -356.0728897 195.83454097 -348.5 191.5 C-339.64803221 186.4369757 -330.69500374 181.59088961 -321.6875 176.8125 C-309.17256109 170.17253748 -296.73558948 163.415706 -284.4296875 156.39453125 C-283.6857373 155.97163818 -282.94178711 155.54874512 -282.17529297 155.11303711 C-280.7631372 154.3093287 -279.35316503 153.50176684 -277.94580078 152.68969727 C-273.22275851 150 -273.22275851 150 -271 150 C-271 149.34 -271 148.68 -271 148 C-270.39341553 147.67427002 -269.78683105 147.34854004 -269.16186523 147.01293945 C-258.00295639 141.01331229 -246.87794818 134.96928321 -235.875 128.6875 C-225.61285777 122.83675084 -215.210591 117.27273833 -204.77636719 111.73779297 C-197.3245379 107.78334734 -189.90841036 103.77563648 -182.55029297 99.64892578 C-176.50565668 96.26353466 -170.41162987 92.97351039 -164.3125 89.6875 C-156.44548744 85.4459705 -148.63733946 81.11745989 -140.875 76.6875 C-130.61275315 70.83692623 -120.21059732 65.27274168 -109.77636719 59.73779297 C-102.3245379 55.78334734 -94.90841036 51.77563648 -87.55029297 47.64892578 C-81.50565668 44.26353466 -75.41162987 40.97351039 -69.3125 37.6875 C-61.44549495 33.44597454 -53.63717161 29.11774764 -45.875 24.6875 C-35.28336703 18.6444957 -24.54164504 12.90065477 -13.76123047 7.20385742 C-12.82115646 6.70624405 -12.82115646 6.70624405 -11.86209106 6.19857788 C-10.15207863 5.29393671 -8.44082541 4.39164207 -6.72949219 3.48950195 C-0.33502704 0 -0.33502704 0 0 0 Z " fill="#0F89A3" transform="translate(1086,614)"/>
<path d="M0 0 C24.09 0 48.18 0 73 0 C85.52350127 36.64771951 85.52350127 36.64771951 91.29296875 53.625 C91.82884613 55.20179283 91.82884613 55.20179283 92.37554932 56.81044006 C94.1788884 62.11736367 95.98129801 67.42460133 97.78271484 72.73217773 C101.08089558 82.44536616 104.39040958 92.1541662 107.74609375 101.84765625 C108.31624612 103.49755769 108.88639594 105.14746 109.45654297 106.79736328 C110.49857956 109.81188488 111.54658487 112.82423832 112.59814453 115.83544922 C113.05652124 117.1597594 113.51470478 118.48413646 113.97265625 119.80859375 C114.56445679 121.50713501 114.56445679 121.50713501 115.16821289 123.23999023 C116 126 116 126 116 129 C116.66 129 117.32 129 118 129 C118.24500244 127.76467529 118.49000488 126.52935059 118.74243164 125.2565918 C120.07034797 119.30324634 122.08214156 113.63591784 124.12109375 107.89453125 C124.53329163 106.72070389 124.9454895 105.54687653 125.37017822 104.33747864 C126.48900872 101.15442489 127.61234797 97.97303338 128.73775864 94.79230499 C129.91401637 91.46427401 131.08427847 88.13413622 132.25512695 84.80419922 C134.19364037 79.29332432 136.13553199 73.78365134 138.08007812 68.27490234 C140.90760919 60.26454574 143.72832761 52.25180271 146.546875 44.23828125 C149.0738105 37.05386819 151.60085219 29.86949766 154.13256836 22.68676758 C154.51419128 21.60360764 154.89581421 20.52044769 155.28900146 19.40446472 C155.9965619 17.39635629 156.70450018 15.38838093 157.41290283 13.38056946 C157.8827359 12.04677498 157.8827359 12.04677498 158.36206055 10.68603516 C158.7666877 9.5385228 158.7666877 9.5385228 159.17948914 8.36782837 C160.14324822 5.58661462 161.06919489 2.79241532 162 0 C184.11 0 206.22 0 229 0 C235.45320637 18.86321862 241.89791424 37.72896057 248.2890625 56.61328125 C248.51644167 57.28505653 248.74382084 57.95683182 248.97809029 58.64896393 C251.25314414 65.37065033 253.52721741 72.09266643 255.79872608 78.81555176 C261.46023193 95.56924277 267.18813436 112.29787603 273 129 C275.72892098 122.3350423 278.24227682 115.62703939 280.58203125 108.81640625 C280.91305344 107.85943344 281.24407562 106.90246063 281.58512878 105.91648865 C282.29452835 103.86485136 283.00285937 101.81284435 283.71020508 99.76049805 C285.21434553 95.39665845 286.72407406 91.03475831 288.23336792 86.67269897 C289.00994961 84.42802296 289.78625402 82.183251 290.56228638 79.93838501 C306.45808469 33.9564207 306.45808469 33.9564207 314.375 11.9375 C314.73851563 10.92623047 315.10203125 9.91496094 315.4765625 8.87304688 C317.8671875 2.265625 317.8671875 2.265625 319 0 C341.44 0 363.88 0 387 0 C383.62459061 11.25136463 383.62459061 11.25136463 382.06152344 15.70117188 C381.70914612 16.70772324 381.3567688 17.7142746 380.99371338 18.75132751 C380.61938171 19.81307693 380.24505005 20.87482635 379.859375 21.96875 C379.46071228 23.10498306 379.06204956 24.24121613 378.65130615 25.41188049 C377.576472 28.47317306 376.49953085 31.53371276 375.4213562 34.59383011 C374.74387438 36.51739237 374.06723303 38.44124824 373.39086914 40.36520386 C366.30974981 60.50735756 359.16859066 80.62762704 351.96386719 100.72590637 C349.40237161 107.87248396 346.84859609 115.02180207 344.296875 122.171875 C343.68165985 123.89566628 343.68165985 123.89566628 343.05401611 125.65428162 C342.21077459 128.01698807 341.36753322 130.37969457 340.52429199 132.74240112 C330.3769695 161.1714777 320.19169302 189.58679523 310 218 C284.92 218 259.84 218 234 218 C230.514375 207.831875 227.02875 197.66375 223.4375 187.1875 C214.86557222 162.16573876 214.86557222 162.16573876 206.16796875 137.1875 C205.63721992 135.67522575 205.63721992 135.67522575 205.0957489 134.13240051 C203.48953282 129.55924662 201.87719985 124.98838069 200.25561523 120.4206543 C199.69372289 118.82605307 199.13194725 117.23141072 198.5703125 115.63671875 C198.32037033 114.93977905 198.07042816 114.24283936 197.81291199 113.52478027 C196.47186712 109.70194957 195.54017733 106.0155772 195 102 C194.34 102 193.68 102 193 102 C192.86709564 102.72840088 192.73419128 103.45680176 192.59725952 104.20727539 C192.04243173 106.80159355 191.32518499 109.18436947 190.44384766 111.68359375 C190.12417526 112.59515228 189.80450287 113.50671082 189.47514343 114.44589233 C189.12498672 115.43312286 188.77483002 116.42035339 188.4140625 117.4375 C188.0449324 118.48636383 187.67580231 119.53522766 187.29548645 120.61587524 C186.07557687 124.07852693 184.85050403 127.53932471 183.625 131 C182.77601052 133.40409438 181.92713508 135.80822903 181.07836914 138.21240234 C178.39325731 145.81100027 175.69886036 153.40627651 173 161 C172.77421516 161.63529129 172.54843033 162.27058258 172.31580353 162.92512512 C169.44903873 170.98978065 166.57542056 179.05197168 163.69378662 187.11132812 C162.85786199 189.44930166 162.02261355 191.78751707 161.18804932 194.12597656 C160.02259505 197.38964537 158.85367861 200.65205143 157.68359375 203.9140625 C157.33859329 204.88139313 156.99359283 205.84872375 156.63813782 206.84536743 C156.15875008 208.17802139 156.15875008 208.17802139 155.66967773 209.53759766 C155.39389389 210.30737946 155.11811005 211.07716125 154.83396912 211.87026978 C154.01317949 213.96634317 153.00669949 215.98660103 152 218 C127.25 218 102.5 218 77 218 C72.4997349 206.74933726 72.4997349 206.74933726 71.05908203 202.70800781 C70.72909714 201.78523544 70.39911224 200.86246307 70.05912781 199.91172791 C69.71219376 198.93538895 69.3652597 197.95904999 69.0078125 196.953125 C68.4405822 195.36396019 68.4405822 195.36396019 67.8618927 193.74269104 C66.61435623 190.24580349 65.36964655 186.74791709 64.125 183.25 C63.46315602 181.39335388 62.80130992 179.53670851 62.13927364 177.68013096 C54.9186277 157.43021463 47.73411189 137.16746075 40.55212402 116.90380859 C34.42853656 99.62714304 28.27492832 82.36158565 22.08123779 65.1098938 C18.71772023 55.74104308 15.35831567 46.37071644 12 37 C11.66877136 36.07610474 11.33754272 35.15220947 10.99627686 34.20031738 C9.19250896 29.16743205 7.39339511 24.13294052 5.60284424 19.09533691 C5.08315187 17.63535013 4.5618358 16.17594013 4.03875732 14.71716309 C3.34040072 12.76871879 2.64788385 10.81830261 1.95703125 8.8671875 C1.57522705 7.79581543 1.19342285 6.72444336 0.80004883 5.62060547 C0 3 0 3 0 0 Z " fill="#BFF3FF" transform="translate(3113,551)"/>
<path d="M0 0 C72.93 0 145.86 0 221 0 C221 20.79 221 41.58 221 63 C174.14 63 127.28 63 79 63 C79 78.18 79 93.36 79 109 C120.25 109 161.5 109 204 109 C204 128.8 204 148.6 204 169 C162.75 169 121.5 169 79 169 C79 185.83 79 202.66 79 220 C127.51 220 176.02 220 226 220 C226 240.46 226 260.92 226 282 C151.42 282 76.84 282 0 282 C0 188.94 0 95.88 0 0 Z " fill="#BFF3FF" transform="translate(1266,487)"/>
<path d="M0 0 C73.26 0 146.52 0 222 0 C222 20.46 222 40.92 222 62 C221 63 221 63 218.67490292 63.12304783 C217.11661188 63.12166514 217.11661188 63.12166514 215.52684021 63.12025452 C213.74518463 63.12231651 213.74518463 63.12231651 211.92753601 63.12442017 C209.95524773 63.11902725 209.95524773 63.11902725 207.94311523 63.11352539 C206.55382286 63.11324352 205.16453033 63.11340125 203.77523804 63.1139679 C199.99234711 63.11425588 196.20948762 63.10835901 192.42660403 63.10139394 C188.47744323 63.09516055 184.52828178 63.09455661 180.57911682 63.09336853 C173.09574925 63.09025517 165.61239621 63.08204172 158.12903506 63.07201904 C149.61164267 63.06085805 141.0942496 63.05534749 132.57685173 63.05032361 C115.05122456 63.03985911 97.52561733 63.02151357 80 63 C80 83.13 80 103.26 80 124 C121.25 124 162.5 124 205 124 C205 144.46 205 164.92 205 186 C163.75 186 122.5 186 80 186 C80 217.68 80 249.36 80 282 C53.6 282 27.2 282 0 282 C0 188.94 0 95.88 0 0 Z " fill="#BFF3FF" transform="translate(2496,487)"/>
<path d="M0 0 C5.93338641 1.61819629 10.90611427 4.63163793 16.1875 7.6875 C18.25468126 8.86941192 20.32241238 10.05036253 22.390625 11.23046875 C24.01194336 12.15738525 24.01194336 12.15738525 25.66601562 13.10302734 C31.23599543 16.27223817 36.83506724 19.38861294 42.4375 22.5 C43.56043457 23.12406738 44.68336914 23.74813477 45.84033203 24.39111328 C54.51108767 29.19879651 63.21903124 33.93574458 71.96069336 38.61328125 C73.77450039 39.58808429 75.58199902 40.57473584 77.38232422 41.57421875 C79.12948845 42.52585456 80.90333904 43.43002141 82.69970703 44.28515625 C90.33881917 48.19638167 92.65940067 53.07630748 95.75 60.875 C115.29375152 106.40356606 148.17679978 149.82401371 186 182 C186.969375 182.85851562 187.93875 183.71703125 188.9375 184.6015625 C203.58635335 197.51293295 219.46229674 208.65494068 236 219 C237.12891285 219.71353122 238.25781947 220.4270723 239.38671875 221.140625 C242.57060447 223.13006405 245.77798449 225.07299434 249 227 C250.10214844 227.67160156 251.20429688 228.34320312 252.33984375 229.03515625 C269.88947052 239.47896123 289.14400738 247.38555862 308.25 254.5 C309.28229736 254.88470459 310.31459473 255.26940918 311.37817383 255.66577148 C325.71960084 260.86831059 340.38201941 264.76499279 355.25 268.125 C356.39053329 268.38413177 356.39053329 268.38413177 357.55410767 268.64849854 C368.8300671 271.19843567 380.06464435 273.51094936 391.57275391 274.73974609 C393.19635629 274.9138318 394.81853136 275.10176336 396.43896484 275.30322266 C427.92058148 279.191732 461.68517066 278.95460979 493 274 C494.19125488 273.81244141 495.38250977 273.62488281 496.60986328 273.43164062 C510.2326552 271.23206246 523.68839318 268.64255315 537 265 C538.23105469 264.68289063 539.46210937 264.36578125 540.73046875 264.0390625 C549.92289389 261.65760521 558.96373137 258.90651115 568 256 C569.08539062 255.6596875 570.17078125 255.319375 571.2890625 254.96875 C576.96049204 253.15154777 582.35650123 251.05893603 587.7421875 248.51953125 C590.23617148 247.35627014 592.73514373 246.23451613 595.2578125 245.13671875 C628.69682661 230.51768686 659.71414 212.07068072 688 189 C688.53544434 188.56365234 689.07088867 188.12730469 689.62255859 187.67773438 C705.77539643 174.4336827 721.52908076 159.99128477 735 144 C735.79535156 143.0821875 736.59070313 142.164375 737.41015625 141.21875 C748.9497882 127.8511624 759.3922482 113.80973896 769 99 C769.75152344 97.93136719 770.50304687 96.86273437 771.27734375 95.76171875 C773.26462181 93.11825506 773.26462181 93.11825506 773 90 C779.27 86.7 785.54 83.4 792 80 C793.10898835 84.43595338 792.93951349 84.84692183 790.90234375 88.6328125 C790.19368164 89.96699219 790.19368164 89.96699219 789.47070312 91.328125 C788.71176758 92.71257812 788.71176758 92.71257812 787.9375 94.125 C787.21916992 95.47464844 787.21916992 95.47464844 786.48632812 96.8515625 C774.56442149 119.06748491 760.52219823 140.93382092 744 160 C742.32635025 162.01505376 740.65945735 164.03574238 739 166.0625 C738.278125 166.94035156 737.55625 167.81820312 736.8125 168.72265625 C734.89486924 171.06656223 734.89486924 171.06656223 733 174 C732.34 174 731.68 174 731 174 C730.7421875 174.57234375 730.484375 175.1446875 730.21875 175.734375 C728.88634058 178.21128995 727.34943882 180.1341166 725.5 182.25 C724.8915625 182.95640625 724.283125 183.6628125 723.65625 184.390625 C722 186 722 186 720 186 C719.79375 186.53625 719.5875 187.0725 719.375 187.625 C717.46749574 190.91978009 714.95180616 193.59363628 712 196 C711.34 196 710.68 196 710 196 C709.67 196.99 709.34 197.98 709 199 C707.57421875 200.4375 707.57421875 200.4375 705.6875 202 C702.60957163 204.60440093 699.60803628 207.2661379 696.65649414 210.01342773 C682.30062861 223.3623459 666.33333446 235.17564581 650 246 C649.33226562 246.44279297 648.66453125 246.88558594 647.9765625 247.34179688 C590.00420819 285.48425743 522.98894171 308.44623092 454 315 C453.11038574 315.0942627 452.22077148 315.18852539 451.30419922 315.28564453 C439.40620738 316.39877883 427.43881732 316.24390291 415.5 316.25 C414.31437469 316.25067474 413.12874939 316.25134949 411.90719604 316.25204468 C394.05247377 316.23590567 376.67453291 315.68869045 359 313 C357.80084961 312.82839355 356.60169922 312.65678711 355.36621094 312.47998047 C329.02201871 308.67228852 303.25508848 302.39729585 278 294 C276.99807617 293.66726074 275.99615234 293.33452148 274.96386719 292.99169922 C260.31409058 288.03602237 246.28524368 282.02746974 232.3125 275.4375 C231.56553864 275.08641174 230.81857727 274.73532349 230.04898071 274.37359619 C215.95458866 267.72052865 202.40926486 260.25114118 189.1953125 251.98828125 C186.90959184 250.56599297 184.61784063 249.16892722 182.3046875 247.79296875 C181.39722778 247.24878296 181.39722778 247.24878296 180.47143555 246.69360352 C178.77891733 245.67976032 177.08291349 244.67174269 175.38671875 243.6640625 C174.59910156 243.11492187 173.81148437 242.56578125 173 242 C173 241.34 173 240.68 173 240 C172.30390625 239.75765625 171.6078125 239.5153125 170.890625 239.265625 C167.53904501 237.79817646 164.69603421 235.88659562 161.75 233.75 C161.15155273 233.31888916 160.55310547 232.88777832 159.93652344 232.44360352 C149.04554059 224.48190988 138.67181321 215.74862941 128.78515625 206.57421875 C127.07528714 204.9309124 127.07528714 204.9309124 125 204 C125 203.34 125 202.68 125 202 C124.45182617 201.77634766 123.90365234 201.55269531 123.33886719 201.32226562 C120.29754281 199.60286971 118.01766379 197.30376001 115.578125 194.84375 C114.82085114 194.08934631 114.82085114 194.08934631 114.04827881 193.31970215 C112.98692003 192.25970014 111.92806581 191.19718512 110.87158203 190.13232422 C109.24860876 188.49859954 107.61518932 186.87586706 105.98046875 185.25390625 C104.94987854 184.22199524 103.91990848 183.18946441 102.890625 182.15625 C102.40007629 181.66974976 101.90952759 181.18324951 101.40411377 180.68200684 C98 177.22994349 98 177.22994349 98 175 C97.01 174.67 96.02 174.34 95 174 C90 168.53488372 90 168.53488372 90 166 C89.34 166 88.68 166 88 166 C86.27212332 163.99480978 84.65950964 161.98120513 83.0625 159.875 C82.06671154 158.58179611 81.07060907 157.28883397 80.07421875 155.99609375 C79.5642334 155.33077637 79.05424805 154.66545898 78.52880859 153.97998047 C77.08428844 152.10916309 75.62035087 150.25633754 74.14453125 148.41015625 C68.08718032 140.82942517 62.3503694 133.10221552 57 125 C56.49098145 124.23220215 55.98196289 123.4644043 55.45751953 122.67333984 C0 38.5560219 0 38.5560219 0 0 Z " fill="#16B4D6" transform="translate(209,748)"/>
<path d="M0 0 C17.61686057 15.16024449 26.42346283 38.16361789 28.60716248 60.87744141 C29.57546999 74.33269047 29.44210355 87.79881442 29.41389394 101.28172684 C29.40756466 104.82640639 29.40704914 108.37108715 29.40586853 111.91577148 C29.40278305 118.60178126 29.3946079 125.28777433 29.38451904 131.97377682 C29.37115974 141.02719667 29.36583547 150.08062121 29.36001682 159.13404846 C29.35066556 173.36021145 29.33072828 187.5863392 29.3125 201.8125 C3.5725 201.8125 -22.1675 201.8125 -48.6875 201.8125 C-48.72488281 193.00046875 -48.76226563 184.1884375 -48.80078125 175.109375 C-48.83492711 168.80073457 -48.87092206 162.49212582 -48.90957737 156.18351364 C-48.95934633 148.02112233 -49.00482085 139.85878299 -49.03393555 131.69628906 C-49.05700939 125.23131934 -49.09051082 118.76649922 -49.13620156 112.30164838 C-49.16000824 108.88292856 -49.17881873 105.46435574 -49.18511391 102.04555511 C-49.19479527 98.2160213 -49.2229043 94.38701886 -49.25512695 90.55761719 C-49.25369186 89.44126892 -49.25225677 88.32492065 -49.2507782 87.17474365 C-49.39357571 75.10405258 -51.61484499 62.73872323 -60.57421875 53.96484375 C-67.53001483 48.40294001 -74.66771797 46.25610755 -83.5 46.375 C-84.68021729 46.38527222 -84.68021729 46.38527222 -85.88427734 46.39575195 C-92.40524729 46.57454626 -97.84873695 47.81448194 -103.6875 50.8125 C-104.77417969 51.35583984 -104.77417969 51.35583984 -105.8828125 51.91015625 C-114.72025553 56.86651688 -120.47115335 64.82897471 -123.49665833 74.36209106 C-126.65665974 86.91786685 -126.1674532 99.69129602 -126.19921875 112.5546875 C-126.21608782 115.13543541 -126.23424101 117.71617521 -126.25361633 120.29690552 C-126.29606801 126.35964135 -126.32571616 132.42231174 -126.34893972 138.4851476 C-126.37882478 146.07742322 -126.4286886 153.66955231 -126.47851562 161.26171875 C-126.56713952 174.77860071 -126.62596222 188.29540742 -126.6875 201.8125 C-152.0975 201.8125 -177.5075 201.8125 -203.6875 201.8125 C-203.6875 129.8725 -203.6875 57.9325 -203.6875 -16.1875 C-179.5975 -16.1875 -155.5075 -16.1875 -130.6875 -16.1875 C-130.3575 -8.9275 -130.0275 -1.6675 -129.6875 5.8125 C-127.3775 3.5025 -125.0675 1.1925 -122.6875 -1.1875 C-87.37384142 -26.57468241 -34.33626535 -28.28733863 0 0 Z " fill="#BFF4FF" transform="translate(2236.6875,567.1875)"/>
<path d="M0 0 C24.83919343 21.96556249 35.61852177 48.59925241 37.6484375 81.12109375 C38.40065408 110.10355626 28.5294211 138.91103411 8.54516602 160.05688477 C-15.86354381 185.2038382 -48.23420989 196.87076008 -82.90600586 197.53320312 C-116.97574636 197.73489416 -147.12612947 189.24629041 -173.53515625 167.1796875 C-174.2003125 166.66148437 -174.86546875 166.14328125 -175.55078125 165.609375 C-195.18061385 149.72995757 -206.75153422 123.87165461 -209.53515625 99.1796875 C-211.59738059 66.531664 -206.23552143 36.24069966 -184.09472656 11.08886719 C-138.63962951 -39.09105523 -51.66886777 -43.0434328 0 0 Z M-115.53515625 43.1796875 C-116.128125 43.65792969 -116.72109375 44.13617187 -117.33203125 44.62890625 C-125.96993906 52.2157412 -130.81774661 64.345873 -131.73608398 75.65380859 C-131.83807995 78.24984272 -131.86439867 80.83174276 -131.84765625 83.4296875 C-131.8420166 84.34991699 -131.83637695 85.27014648 -131.83056641 86.21826172 C-131.58266535 100.20135381 -128.0187449 113.03132918 -118.35546875 123.5546875 C-109.09282089 131.82348903 -98.96295928 135.76674401 -86.66015625 135.6171875 C-85.78319092 135.60961426 -84.90622559 135.60204102 -84.00268555 135.59423828 C-72.46862969 135.30147948 -63.15034387 131.23794967 -54.6328125 123.4375 C-47.58383252 116.00290842 -42.81487031 106.3526043 -41.53515625 96.1796875 C-41.40238281 95.14328125 -41.26960938 94.106875 -41.1328125 93.0390625 C-39.61072108 77.78394405 -41.55690081 61.98015669 -50.78515625 49.3046875 C-57.75608351 41.08140751 -67.49192383 33.97690826 -78.54296875 33.00268555 C-92.69160042 32.59317142 -104.51122935 33.33004846 -115.53515625 43.1796875 Z " fill="#BFF3FF" transform="translate(3072.53515625,575.8203125)"/>
<path d="M0 0 C0.5269043 0.39670898 1.05380859 0.79341797 1.59667969 1.20214844 C23.53353075 17.98351403 36.67324679 42.49485839 40.52563477 69.71386719 C41.01381278 73.69982487 41.12925281 77.62224298 41.1328125 81.640625 C41.13376923 82.33009216 41.13472595 83.01955933 41.13571167 83.72991943 C41.13638617 85.17183525 41.13458341 86.61375424 41.13037109 88.05566406 C41.12497912 90.25853245 41.13035775 92.46120005 41.13671875 94.6640625 C41.13605848 96.07291711 41.13477838 97.4817716 41.1328125 98.890625 C41.13168457 100.15938477 41.13055664 101.42814453 41.12939453 102.73535156 C41 106 41 106 40 110 C-11.81 110.33 -63.62 110.66 -117 111 C-111.25608761 123.92380288 -104.47369642 133.35266182 -91.1015625 138.93359375 C-73.17399597 145.09760592 -52.03822217 145.38512151 -34.640625 137.28125 C-27.85202606 133.91247158 -21.68695321 130.05506952 -16 125 C-13.02363795 126.33579648 -10.96048142 127.79234603 -8.6875 130.125 C-8.15511719 130.66382813 -7.62273437 131.20265625 -7.07421875 131.7578125 C-5.27956163 133.69779967 -3.55766636 135.67551661 -1.8359375 137.6796875 C2.95265852 143.17796399 8.19246283 148.20856136 13.41601562 153.2890625 C18.09689493 157.90256251 22.24215336 162.6035521 26 168 C4.88545381 191.12545536 -24.8079726 201.73602136 -55.62402344 203.16845703 C-97.38839901 204.42845271 -134.95905589 196.06254255 -166.34375 166.70703125 C-187.43860571 145.20889154 -196.59443193 116.5599466 -196.35351562 86.85058594 C-195.63506489 59.10812382 -186.13113881 34.93099983 -168 14 C-167.03513672 12.88238281 -167.03513672 12.88238281 -166.05078125 11.7421875 C-125.48645931 -31.72587115 -46.58378462 -35.15522946 0 0 Z M-110 47 C-115.38381938 54.43089899 -117.14098263 59.70491315 -119 69 C-89.96 69 -60.92 69 -31 69 C-33.70552948 56.82511735 -38.06787104 47.81793918 -48 40 C-67.91296127 27.47713907 -93.82509073 29.20180234 -110 47 Z " fill="#BFF3FF" transform="translate(1957,570)"/>
<path d="M0 0 C0.77520996 0.15049805 1.55041992 0.30099609 2.34912109 0.45605469 C22.61658808 4.42972383 41.99664609 10.98653751 61 19 C60.39342565 23.38928952 58.68674528 26.88562457 56.59765625 30.73046875 C56.07322182 31.71444893 56.07322182 31.71444893 55.53819275 32.7183075 C54.38552468 34.8779167 53.22398979 37.03262454 52.0625 39.1875 C51.25778252 40.69185595 50.45375606 42.19658174 49.65039062 43.70166016 C47.96768927 46.8528442 46.28196496 50.0023837 44.59423828 53.15087891 C40.76740802 60.29615761 36.97884475 67.46169628 33.18942261 74.62686157 C32.01544841 76.84580083 30.84007943 79.06399577 29.66430664 81.28198242 C28.94285806 82.64371054 28.22142185 84.00544522 27.5 85.3671875 C27.17370102 85.9823674 26.84740204 86.5975473 26.51121521 87.23136902 C24.97260009 90.13763634 23.45356592 93.05016966 22 96 C23.05654785 95.93941406 24.1130957 95.87882812 25.20166016 95.81640625 C36.09608885 95.21941003 46.99264581 94.8168814 57.8984375 94.5 C58.602248 94.47946564 59.3060585 94.45893127 60.03119659 94.43777466 C66.63541997 94.24578638 73.23980757 94.05969896 79.84423828 93.875 C83.49839267 93.7726096 87.15245329 93.66726353 90.80647659 93.56030273 C92.82562127 93.502099 94.84486251 93.4472753 96.86410522 93.39257812 C104.22344279 93.17727443 111.54325766 92.77995363 118.88446045 92.22290039 C122.75884185 91.94570888 126.61282798 91.80941178 130.49609375 91.71875 C131.21757095 91.70034058 131.93904816 91.68193115 132.68238831 91.66296387 C134.93403022 91.60560689 137.18573416 91.55224741 139.4375 91.5 C149.07469467 91.27585484 158.66293548 90.92722732 168.28100586 90.24072266 C178.5923712 89.5732897 188.93525927 89.39917588 199.26429749 89.1730957 C203.66942486 89.0726485 208.06780589 88.9181975 212.46925354 88.71284485 C214.52870829 88.62257491 216.58767408 88.5532531 218.64819336 88.49243164 C221.18937218 88.41619469 223.7298504 88.30662189 226.26782227 88.15795898 C231.15856534 88.05691765 234.59213932 88.01699441 238.68432617 90.87426758 C240.98491243 93.1387202 243.01073437 95.4604658 245 98 C245.77730469 98.87527344 246.55460938 99.75054687 247.35546875 100.65234375 C250.97550078 105.16773552 250.97550078 105.16773552 252.66015625 107.30517578 C254.15850487 109.20049942 255.67362858 111.08189907 257.1875 112.96484375 C266.14862751 124.20370755 274.24994996 135.89851819 282 148 C282.41556152 148.64437012 282.83112305 149.28874023 283.25927734 149.95263672 C303.05743253 180.89743623 317.71330028 215.43409674 327.5625 250.75 C327.83601288 251.72226532 327.83601288 251.72226532 328.11505127 252.71417236 C328.62863451 254.55175787 329.1290729 256.39300191 329.62890625 258.234375 C330.0631189 259.83104004 330.0631189 259.83104004 330.50610352 261.45996094 C331 264 331 264 330 266 C326.38242194 264.00675363 322.76518588 262.01288814 319.14822388 260.01852417 C317.84040971 259.2974748 316.53252796 258.57654799 315.22457886 257.85574341 C307.39441679 253.5402502 299.57315844 249.20973432 291.76998901 244.84561157 C285.85909501 241.54107504 279.93354604 238.26365649 274 235 C273.20916016 234.56204102 272.41832031 234.12408203 271.60351562 233.67285156 C269.68264484 232.61681523 267.75194311 231.58390549 265.8125 230.5625 C264.84957031 230.04816406 263.88664063 229.53382813 262.89453125 229.00390625 C257.67220855 227.19265533 253.62602398 227.38839325 248.5625 229.29296875 C247.36607361 229.90739983 246.17889921 230.54007563 245 231.1875 C244.34572021 231.52974609 243.69144043 231.87199219 243.01733398 232.22460938 C240.6669693 233.46302244 238.33340991 234.72992733 236 236 C233.8867778 237.14203636 231.77349266 238.28395626 229.66015625 239.42578125 C226.37282681 241.20382601 223.08809946 242.98597219 219.81054688 244.78198242 C218.81216797 245.32830322 217.81378906 245.87462402 216.78515625 246.4375 C215.43756226 247.17806641 215.43756226 247.17806641 214.06274414 247.93359375 C212 249 212 249 211 249 C210.99635437 248.44956024 210.99270874 247.89912048 210.98895264 247.33200073 C210.94705323 241.58874708 210.87765613 235.84628705 210.79248047 230.10351562 C210.76430256 227.96199491 210.74307225 225.82037082 210.72900391 223.67871094 C210.70753075 220.59516593 210.66085683 217.51285982 210.609375 214.4296875 C210.60814636 213.47633514 210.60691772 212.52298279 210.60565186 211.54074097 C210.48147805 205.87015845 209.87799998 202.42997808 206 198 C202.65291887 194.95853983 199.07949256 192.79492247 195.1171875 190.63671875 C193.96379883 190.00491699 192.81041016 189.37311523 191.62207031 188.72216797 C191.0122229 188.3910199 190.40237549 188.05987183 189.77404785 187.71868896 C187.83755415 186.66716678 185.90423634 185.61000837 183.97167969 184.55126953 C181.29349501 183.08421017 178.61433069 181.61896406 175.93457031 180.15478516 C170.02460854 176.92207982 164.13690596 173.64947829 158.25 170.375 C157.14060059 169.75842529 156.03120117 169.14185059 154.88818359 168.5065918 C146.38786718 163.77943206 137.90075974 159.02889115 129.41748047 154.27124023 C120.6216509 149.34083317 111.80756176 144.44367922 102.98486328 139.56152344 C97.46685105 136.50300017 91.96696928 133.41851219 86.5 130.26953125 C85.46697754 129.67664307 84.43395508 129.08375488 83.36962891 128.47290039 C81.44079118 127.36318183 79.5156656 126.24697315 77.59521484 125.12280273 C67.75130037 119.2320059 67.75130037 119.2320059 56.65234375 118.4375 C50.87945139 120.0779667 45.76048823 123.06443342 40.5625 126 C39.52077637 126.57580811 38.47905273 127.15161621 37.40576172 127.74487305 C34.26368623 129.48467414 31.13064678 131.23973066 28 133 C25.33147514 134.49693247 22.66264789 135.99328775 19.99194336 137.48632812 C18.44423962 138.35348921 16.89934433 139.22568695 15.35766602 140.10351562 C10.2190747 143 10.2190747 143 8 143 C7.99635437 142.36408432 7.99270874 141.72816864 7.98895264 141.07298279 C7.94705144 134.4375287 7.87765199 127.80276138 7.79248047 121.16772461 C7.76430368 118.69351072 7.74307285 116.21920737 7.72900391 113.74487305 C7.70752978 110.18231513 7.66085325 106.62082917 7.609375 103.05859375 C7.60753204 101.40663246 7.60753204 101.40663246 7.60565186 99.72129822 C7.4837163 93.28676877 7.00150085 89.14083453 3 84 C0.27762487 81.74919884 0.27762487 81.74919884 -2.8984375 80.03515625 C-3.46702484 79.70435562 -4.03561218 79.37355499 -4.62142944 79.0327301 C-6.40419629 78.00276005 -8.19999308 76.99947849 -10 76 C-11.65370605 75.06389893 -11.65370605 75.06389893 -13.34082031 74.10888672 C-16.16155866 72.52776465 -18.99122013 70.96507769 -21.83001709 69.41665649 C-23.69325039 68.40026967 -25.55416104 67.3797359 -27.41455078 66.3581543 C-29.35790336 65.29103443 -31.30135691 64.22410549 -33.24545288 63.15834045 C-39.80062225 59.56461292 -46.34006852 55.94291247 -52.875 52.3125 C-53.99165039 51.6922998 -55.10830078 51.07209961 -56.25878906 50.43310547 C-63.31568092 46.5079031 -70.35134783 42.54681737 -77.375 38.5625 C-87.38562667 32.88396254 -97.45243697 27.31100069 -107.53613281 21.76367188 C-108.74675087 21.0976673 -109.95736294 20.43165183 -111.16796875 19.765625 C-112.04825241 19.28138062 -112.04825241 19.28138062 -112.94631958 18.78735352 C-116.55066213 16.80295655 -120.14751025 14.80571579 -123.73828125 12.796875 C-124.57705811 12.32789795 -125.41583496 11.8589209 -126.2800293 11.37573242 C-127.79182086 10.52909767 -129.30248924 9.68045265 -130.81176758 8.8293457 C-136.31838271 5.74730022 -140.65504534 4.32324424 -147 5 C-150.45879152 6.20808363 -150.45879152 6.20808363 -153.875 8.125 C-154.87261353 8.64864136 -154.87261353 8.64864136 -155.89038086 9.18286133 C-158.26937691 10.43874439 -160.63383904 11.72010773 -163 13 C-165.00335482 14.06484018 -167.00729749 15.12857487 -169.01171875 16.19140625 C-180.44962499 22.28169748 -191.77957854 28.54059666 -203.03344727 34.96362305 C-211.58358149 39.818416 -220.25534787 44.42858544 -228.94366455 49.02920532 C-238.17502198 53.92054242 -247.30825633 58.9516522 -256.37890625 64.13671875 C-264.43331931 68.72310263 -272.59662183 73.0955014 -280.77966309 77.44619751 C-290.17698833 82.44571581 -299.47957449 87.59107867 -308.71875 92.87695312 C-318.6340519 98.54388452 -318.6340519 98.54388452 -322 100 C-322.66 99.67 -323.32 99.34 -324 99 C-316.8683818 91.68098162 -309.78557441 84.52731045 -301.74609375 78.19140625 C-299.29212655 76.23311948 -296.93038043 74.19763035 -294.57397461 72.12402344 C-285.94674576 64.59276177 -276.54730723 58.29638383 -267 52 C-266.26072266 51.50387207 -265.52144531 51.00774414 -264.75976562 50.49658203 C-243.04356098 35.94944674 -219.38700046 24.32508487 -195 15 C-194.15743652 14.67596191 -193.31487305 14.35192383 -192.44677734 14.01806641 C-173.60405562 6.86671072 -153.86994432 1.39084919 -134 -2 C-133.31550781 -2.1232666 -132.63101563 -2.2465332 -131.92578125 -2.37353516 C-88.34881242 -10.19232315 -43.31687242 -8.68191839 0 0 Z " fill="#0F5564" transform="translate(696,295)"/>
<path d="M0 0 C26.4 0 52.8 0 80 0 C92.52144438 30.7344544 92.52144438 30.7344544 97.4125061 43.36434937 C99.06116966 47.62003799 100.71893934 51.87218575 102.375 56.125 C102.91034111 57.50053291 102.91034111 57.50053291 103.45649719 58.90385437 C107.81501909 70.10027554 112.1890862 81.29060645 116.57443523 92.47654438 C117.81293521 95.63572969 119.0504282 98.79530007 120.28530884 101.9559021 C121.67323644 105.50680092 123.06471457 109.05628902 124.45703125 112.60546875 C124.87198853 113.66930786 125.2869458 114.73314697 125.71447754 115.82922363 C127.61865863 120.67255681 129.55646966 125.40286634 132 130 C132.71410034 128.27112549 132.71410034 128.27112549 133.44262695 126.50732422 C133.76244034 125.73304077 134.08225372 124.95875732 134.41175842 124.16101074 C135.14429671 122.38749372 135.8768303 120.61397477 136.60935974 118.8404541 C138.70658771 113.7628949 140.80390466 108.68537247 142.90136719 103.60791016 C147.25759981 93.06224096 151.61276372 82.51613366 155.96484375 71.96875 C163.49560842 53.71974227 171.0359945 35.47487892 178.625 17.25 C178.94754761 16.47485046 179.27009521 15.69970093 179.60241699 14.90106201 C180.49714659 12.75140729 181.39289344 10.60217995 182.2890625 8.453125 C182.79131348 7.24817383 183.29356445 6.04322266 183.81103516 4.80175781 C184.49820019 3.18247528 185.21332705 1.57334591 186 0 C210.42 0 234.84 0 260 0 C248.35370087 29.11574782 248.35370087 29.11574782 242.4375 43.5 C241.75430163 45.16332535 241.07111514 46.82665557 240.38793945 48.48999023 C234.80896793 62.06504415 229.19063823 75.62371929 223.5637207 89.17895508 C218.23766894 102.0097224 212.92723205 114.84687186 207.625 127.6875 C206.83309752 129.60482115 206.0411867 131.52213885 205.24926758 133.43945312 C201.55392838 142.38722311 197.86085589 151.33591936 194.17288208 160.28672791 C192.48081921 164.39293121 190.78767063 168.49868643 189.09442139 172.60440063 C188.29964814 174.53237915 187.50539251 176.46057115 186.71173096 178.38900757 C186.33844666 179.29599396 185.96516235 180.20298035 185.58056641 181.13745117 C185.25810944 181.92141769 184.93565247 182.70538422 184.60342407 183.5131073 C179.83210169 195.05625873 174.9219646 206.51541594 170 218 C143.6 218 117.2 218 90 218 C83.11604465 203.0847634 83.11604465 203.0847634 80.14453125 195.72265625 C79.80544235 194.89019882 79.46635345 194.05774139 79.11698914 193.20005798 C78.39084351 191.41668758 77.66600058 189.63278627 76.94238281 187.84838867 C74.96405956 182.97054799 72.97547658 178.09688763 70.98828125 173.22265625 C70.37129868 171.70824448 70.37129868 171.70824448 69.74185181 170.16323853 C65.36496901 159.42681345 60.9339632 148.71294579 56.5 138 C49.92672718 122.11183299 43.39307798 106.20801441 36.89331055 90.28964233 C32.61620966 79.81600776 28.32442385 69.34872803 24 58.89453125 C23.58113525 57.88180145 23.16227051 56.86907166 22.73071289 55.82565308 C20.72909972 50.98759838 18.72542234 46.15041153 16.71875 41.31445312 C11.03248291 27.58432054 5.52050785 13.80126963 0 0 Z " fill="#BFF3FF" transform="translate(1502,551)"/>
<path d="M0 0 C25.74 0 51.48 0 78 0 C78 18.81 78 37.62 78 57 C94.5 57 111 57 128 57 C128.02094585 64.40784828 128.0409839 71.81558988 128.05175018 79.22344208 C128.05703976 82.67281862 128.06411301 86.12217075 128.07543945 89.5715332 C128.08834235 93.52555043 128.09322918 97.47955756 128.09765625 101.43359375 C128.10281754 102.67523788 128.10797882 103.91688202 128.11329651 105.19615173 C128.11337204 106.33725906 128.11344757 107.47836639 128.11352539 108.65405273 C128.115746 109.664431 128.11796661 110.67480927 128.12025452 111.71580505 C128 114 128 114 127 115 C125.4651703 115.09319449 123.92607918 115.117458 122.38842773 115.11352539 C121.40748642 115.11344986 120.4265451 115.11337433 119.4158783 115.11329651 C118.3492244 115.10813522 117.2825705 115.10297394 116.18359375 115.09765625 C114.55430687 115.09553383 114.55430687 115.09553383 112.8921051 115.09336853 C109.40720925 115.08775048 105.92237658 115.07519492 102.4375 115.0625 C100.08138113 115.05748733 97.72526126 115.05292402 95.36914062 115.04882812 C89.57940536 115.03777519 83.78970719 115.02101951 78 115 C78.03813968 125.14510285 78.09762149 135.28983903 78.18390274 145.43465328 C78.22331139 150.14598362 78.25553218 154.85712891 78.27099609 159.56860352 C78.28620639 164.12055654 78.32072899 168.67200059 78.36830902 173.22372627 C78.38307788 174.95508955 78.39103842 176.68652552 78.39188385 178.41795158 C78.12550857 192.43608641 78.12550857 192.43608641 84.3760376 204.56163025 C90.26609832 209.9680076 96.90978353 210.43294112 104.53515625 210.328125 C111.50639899 209.66793967 117.79970814 207.14415755 124 204 C129.31606445 218.38542329 134.62723516 232.77215042 139.6875 247.25 C140.02587891 248.21236572 140.36425781 249.17473145 140.71289062 250.16625977 C141.17018555 251.48388306 141.17018555 251.48388306 141.63671875 252.828125 C142.03443481 253.9713623 142.03443481 253.9713623 142.44018555 255.13769531 C143 257 143 257 143 259 C134.28521465 263.86859517 125.74727154 266.88588897 116 269 C114.95972656 269.226875 113.91945313 269.45375 112.84765625 269.6875 C85.73925582 274.51272826 53.26697706 271.91607466 30 256 C13.91493707 243.74863523 4.62651213 227.20921065 1.39599609 207.27246094 C-0.7897586 189.74821913 -0.22831457 172.01930784 -0.1373291 154.39599609 C-0.11658351 149.9437044 -0.10767506 145.49138897 -0.09765625 141.0390625 C-0.07643754 132.35930379 -0.04136821 123.67968607 0 115 C-10.23 115 -20.46 115 -31 115 C-31 95.86 -31 76.72 -31 57 C-20.77 57 -10.54 57 0 57 C0 38.19 0 19.38 0 0 Z " fill="#BFF4FF" transform="translate(2321,502)"/>
<path d="M0 0 C25.74 0 51.48 0 78 0 C78 98.67 78 197.34 78 299 C52.26 299 26.52 299 0 299 C0 200.33 0 101.66 0 0 Z " fill="#BFF4FF" transform="translate(2750,470)"/>
<path d="M0 0 C0.1299937 26.02073935 -0.13055158 51.99285528 -1 78 C-1.72775635 78.38631592 -2.4555127 78.77263184 -3.20532227 79.1706543 C-16.86680971 86.43183726 -30.46610772 93.76561108 -43.90454102 101.43432617 C-50.46501948 105.16601138 -57.09994178 108.71750192 -63.79907227 112.19262695 C-70.11454965 115.48791803 -76.311916 118.9721373 -82.5 122.5 C-90.19189897 126.88519637 -97.93770494 131.11479593 -105.796875 135.19140625 C-112.11301458 138.48724418 -118.31118359 141.97171974 -124.5 145.5 C-131.44036557 149.4567428 -138.40828084 153.32116598 -145.5 157 C-152.48271501 160.62468873 -159.3497619 164.42147529 -166.1875 168.3125 C-168.11702765 169.40392848 -170.04671712 170.49507092 -171.9765625 171.5859375 C-175.07883316 173.34010637 -178.17620212 175.10146248 -181.26464844 176.87988281 C-184.52026318 178.75131087 -187.78974673 180.59624816 -191.0625 182.4375 C-192.06756592 183.02378174 -193.07263184 183.61006348 -194.1081543 184.21411133 C-201.07198168 188.0904223 -201.07198168 188.0904223 -205.046875 187.703125 C-206.02140625 187.14109375 -206.9959375 186.5790625 -208 186 C-209.07592407 185.42390991 -209.07592407 185.42390991 -210.17358398 184.83618164 C-212.87464728 183.37659757 -215.53018109 181.85022977 -218.1875 180.3125 C-220.24159927 179.13699236 -222.29631327 177.9625584 -224.3515625 176.7890625 C-225.43083008 176.17192383 -226.51009766 175.55478516 -227.62207031 174.91894531 C-232.83162382 171.95948516 -238.0721761 169.05650989 -243.31420898 166.15515137 C-252.91704905 160.84013159 -262.49967511 155.49649111 -272 150 C-269.04990807 146.77028266 -266.16253763 144.80410218 -262.29296875 142.78515625 C-261.16133301 142.18840088 -260.02969727 141.59164551 -258.86376953 140.97680664 C-258.26518127 140.66518585 -257.66659302 140.35356506 -257.04986572 140.03250122 C-253.8595184 138.37082931 -250.68212887 136.68471447 -247.50390625 135 C-246.8618927 134.66029678 -246.21987915 134.32059357 -245.55841064 133.97059631 C-239.85174059 130.9421808 -234.23001759 127.77495359 -228.625 124.5625 C-219.19850727 119.17438253 -209.64810926 114.049514 -200.05377197 108.96951294 C-191.79951063 104.59619571 -183.60928211 100.13883328 -175.5 95.5 C-166.11894801 90.13366355 -156.61462976 85.03102742 -147.06430054 79.97528076 C-137.61666983 74.97068049 -128.27249662 69.81515022 -118.98828125 64.51171875 C-112.45639451 60.79114122 -105.84768971 57.25652313 -99.17626953 53.79394531 C-93.1004363 50.62251476 -87.13835139 47.27431068 -81.1875 43.875 C-72.20941187 38.74990609 -63.13548886 33.83606171 -54 29 C-43.82971702 23.61569467 -33.75356145 18.099618 -23.75537109 12.3996582 C-18.24680379 9.26138063 -12.7172599 6.17439109 -7.125 3.1875 C-6.50568604 2.85556641 -5.88637207 2.52363281 -5.24829102 2.18164062 C-1.12894596 0 -1.12894596 0 0 0 Z " fill="#0F89A3" transform="translate(687,391)"/>
<path d="M0 0 C0.05190016 11.56016115 0.06534935 23.11922635 0.01428223 34.6794281 C-0.00668339 40.26667541 0.0354878 45.84717019 0.12890625 51.43359375 C0.12999592 53.72656261 0.12892222 56.01953423 0.125 58.3125 C0.16117432 59.3339209 0.19734863 60.3553418 0.23461914 61.40771484 C0.1951069 64.25308667 0.04238616 66.35124682 -1 69 C-3.96392803 71.77696841 -7.34078745 73.30003891 -11 75 C-12.95678002 76.05465612 -14.90848576 77.11877174 -16.85546875 78.19140625 C-18.96523913 79.3168056 -21.07595537 80.44043315 -23.1875 81.5625 C-31.64517723 86.08376787 -40.0466298 90.6823191 -48.375 95.4375 C-57.43372658 100.60521932 -66.59569218 105.56219978 -75.80273438 110.45874023 C-83.72502547 114.67471518 -91.58361869 118.98370331 -99.375 123.4375 C-108.79851183 128.82236391 -118.34413358 133.9470789 -127.93515015 139.02444458 C-137.38296645 144.02913427 -146.72732434 149.18474751 -156.01171875 154.48828125 C-162.52492055 158.1982158 -169.11096434 161.73062344 -175.76879883 165.1730957 C-183.42267606 169.15713894 -190.89822519 173.44933335 -198.34960938 177.79882812 C-199.27322266 178.33056641 -200.19683594 178.86230469 -201.1484375 179.41015625 C-201.96489746 179.88590088 -202.78135742 180.36164551 -203.62255859 180.85180664 C-206.19402178 182.09370348 -208.14800571 182.78078658 -211 183 C-213.4375 182.1105957 -213.4375 182.1105957 -216 180.67578125 C-216.9590625 180.14758789 -217.918125 179.61939453 -218.90625 179.07519531 C-219.9271875 178.49350586 -220.948125 177.91181641 -222 177.3125 C-223.0621875 176.72178711 -224.124375 176.13107422 -225.21875 175.52246094 C-228.48856777 173.69778584 -231.745684 171.85215879 -235 170 C-235.96292969 169.45456543 -236.92585937 168.90913086 -237.91796875 168.34716797 C-242.32250144 165.85059311 -246.71831789 163.33948872 -251.10546875 160.8125 C-255.82446717 158.09507557 -260.56397259 155.41542679 -265.3125 152.75 C-265.99505859 152.36682617 -266.67761719 151.98365234 -267.38085938 151.58886719 C-268.92022922 150.72529851 -270.46005535 149.86254325 -272 149 C-268.44402875 145.99087969 -264.88287875 143.72211965 -260.7578125 141.56640625 C-260.16189301 141.25247421 -259.56597351 140.93854218 -258.95199585 140.61509705 C-257.67558169 139.9429216 -256.39800992 139.27294054 -255.11938477 138.60498047 C-251.71099282 136.82338742 -248.31223623 135.02364507 -244.9140625 133.22265625 C-244.23253113 132.86164825 -243.55099976 132.50064026 -242.84881592 132.12869263 C-237.00547017 129.02355217 -231.24113501 125.79021985 -225.5 122.5 C-216.11576046 117.13075346 -206.60688705 112.02762442 -197.05322266 106.96923828 C-188.79914351 102.59600984 -180.60914871 98.13865584 -172.5 93.5 C-163.00387042 88.06890414 -153.38528243 82.89569338 -143.72235107 77.77011108 C-135.62116962 73.47272973 -127.5490584 69.13493614 -119.55029297 64.64892578 C-113.50565668 61.26353466 -107.41162987 57.97351039 -101.3125 54.6875 C-93.44548964 50.44597168 -85.63729525 46.11753474 -77.875 41.6875 C-68.36914133 36.26703602 -58.74328817 31.10028279 -49.07400513 25.98013306 C-38.63258546 20.44759148 -28.30922198 14.7336114 -18.05078125 8.8671875 C-14.37042905 6.77138103 -10.68313459 4.68898014 -6.98046875 2.6328125 C-6.07578857 2.1289502 -5.1711084 1.62508789 -4.23901367 1.10595703 C-2 0 -2 0 0 0 Z " fill="#0F89A3" transform="translate(890,505)"/>
<path d="M0 0 C0 3 0 3 -1.3125 4.5 C-2.4375 5.5 -3.5625 6.5 -4.6875 7.5 C-6.3292523 9.04409629 -6.3292523 9.04409629 -6 12 C-7.96466413 13.06775224 -9.96855359 14.06553465 -12 15 C-12.66 14.67 -13.32 14.34 -14 14 C-9.38 9.38 -4.76 4.76 0 0 Z " fill="#1E6776" transform="translate(386,380)"/>
</svg>
